<mxfile modified="2022-10-28T14:53:19.921Z" host="app.diagrams.net" agent="5.0 (Windows NT 10.0; Win64; x64) AppleWebKit/537.36 (KHTML, like Gecko) Chrome/107.0.0.0 Safari/537.36 Edg/107.0.1418.24" etag="rxtWoLWGPfmmMYgcYVeF" version="20.5.1" type="github" pages="2">
  <diagram id="L0BLLCm5RNWIwX8asA4g" name="High level arch">
    <mxGraphModel dx="1923" dy="552" grid="1" gridSize="10" guides="1" tooltips="1" connect="1" arrows="1" fold="1" page="1" pageScale="1" pageWidth="1100" pageHeight="850" math="0" shadow="0">
      <root>
        <mxCell id="0" />
        <mxCell id="1" parent="0" />
        <mxCell id="qwJ5qURFDOFc9HHXz2gv-1" value="" style="aspect=fixed;html=1;points=[];align=center;image;fontSize=12;image=img/lib/azure2/iot/IoT_Hub.svg;" vertex="1" parent="1">
          <mxGeometry x="410" y="220" width="64" height="64" as="geometry" />
        </mxCell>
        <mxCell id="qwJ5qURFDOFc9HHXz2gv-2" value="" style="shape=image;verticalLabelPosition=bottom;verticalAlign=top;imageAspect=0;aspect=fixed;image=data:image/svg+xml,PHN2ZyB4bWxucz0iaHR0cDovL3d3dy53My5vcmcvMjAwMC9zdmciIHZpZXdCb3g9IjAgMCAxOCAxOCI+PGRlZnM+PGxpbmVhckdyYWRpZW50IGlkPSJhIiB4MT0iMS4zIiB5MT0iOC42IiB4Mj0iMTcuNSIgeTI9IjguNiIgZ3JhZGllbnRVbml0cz0idXNlclNwYWNlT25Vc2UiPjxzdG9wIG9mZnNldD0iLjEiIHN0b3AtY29sb3I9IiM1NGFlZjAiLz48c3RvcCBvZmZzZXQ9IjEiIHN0b3AtY29sb3I9IiMxOTg4ZDkiLz48L2xpbmVhckdyYWRpZW50PjxsaW5lYXJHcmFkaWVudCBpZD0iYiIgeDE9Ii41IiB5MT0iMTMuNyIgeDI9IjguMTEiIHkyPSIxMy43IiBncmFkaWVudFRyYW5zZm9ybT0icm90YXRlKDQ1IDQuMzA0IDEzLjcwMykiIGdyYWRpZW50VW5pdHM9InVzZXJTcGFjZU9uVXNlIj48c3RvcCBvZmZzZXQ9IjAiIHN0b3AtY29sb3I9IiNiM2IyYjMiLz48c3RvcCBvZmZzZXQ9IjEiIHN0b3AtY29sb3I9IiM5Nzk3OTciLz48L2xpbmVhckdyYWRpZW50PjxsaW5lYXJHcmFkaWVudCBpZD0iYyIgeDE9Ii41IiB5MT0iMTAuMDgiIHgyPSI1LjcyIiB5Mj0iMTAuMDgiIGdyYWRpZW50VHJhbnNmb3JtPSJyb3RhdGUoNDUgMy4xMTUgMTAuMDgpIiBncmFkaWVudFVuaXRzPSJ1c2VyU3BhY2VPblVzZSI+PHN0b3Agb2Zmc2V0PSIwIiBzdG9wLWNvbG9yPSIjYjNiMmIzIi8+PHN0b3Agb2Zmc2V0PSIxIiBzdG9wLWNvbG9yPSIjOTc5Nzk3Ii8+PC9saW5lYXJHcmFkaWVudD48bGluZWFyR3JhZGllbnQgaWQ9ImQiIHgxPSI1LjI4IiB5MT0iMTQuODkiIHgyPSIxMC40OSIgeTI9IjE0Ljg5IiBncmFkaWVudFRyYW5zZm9ybT0icm90YXRlKDQ1IDcuODggMTQuODk0KSIgZ3JhZGllbnRVbml0cz0idXNlclNwYWNlT25Vc2UiPjxzdG9wIG9mZnNldD0iMCIgc3RvcC1jb2xvcj0iI2IzYjJiMyIvPjxzdG9wIG9mZnNldD0iMSIgc3RvcC1jb2xvcj0iIzk3OTc5NyIvPjwvbGluZWFyR3JhZGllbnQ+PC9kZWZzPjxwYXRoIGQ9Ik0xLjQ3IDEuNDdsMTUuMDYgMTUuMDZhLjU3LjU3IDAgMDAxLS40VjEuMDdhLjU3LjU3IDAgMDAtLjYtLjU3SDEuODdhLjU3LjU3IDAgMDAtLjQuOTd6IiBmaWxsPSJ1cmwoI2EpIi8+PHBhdGggZD0iTTUuNTMgNS41M2w2Ljk0IDYuOTQgNS01di02LjRhLjU3LjU3IDAgMDAtLjU0LS41N2gtNi4zN3oiIGZpbGw9IiM1MGU2ZmYiLz48cmVjdCB4PSItLjM4IiB5PSIxMi44NSIgd2lkdGg9IjkuMzciIGhlaWdodD0iMS43IiByeD0iLjI3IiB0cmFuc2Zvcm09InJvdGF0ZSgtNDUgNC4zMDcgMTMuNzA2KSIgZmlsbD0idXJsKCNiKSIvPjxyZWN0IHg9Ii4xMiIgeT0iOS4yMyIgd2lkdGg9IjUuOTkiIGhlaWdodD0iMS43IiByeD0iLjI3IiB0cmFuc2Zvcm09InJvdGF0ZSgtNDUgMy4xMDcgMTAuMDgzKSIgZmlsbD0idXJsKCNjKSIvPjxyZWN0IHg9IjQuODkiIHk9IjE0LjA0IiB3aWR0aD0iNS45OSIgaGVpZ2h0PSIxLjciIHJ4PSIuMjciIHRyYW5zZm9ybT0icm90YXRlKC00NSA3Ljg3NyAxNC44ODcpIiBmaWxsPSJ1cmwoI2QpIi8+PHJlY3QgeD0iOS4xOSIgeT0iNC43NSIgd2lkdGg9IjEuNyIgaGVpZ2h0PSIxLjciIHJ4PSIuMzgiIHRyYW5zZm9ybT0icm90YXRlKC00NSAxMC4wNCA1LjYwMSkiIGZpbGw9IiNmZmYiLz48cmVjdCB4PSIxMS41OSIgeT0iMi4zNSIgd2lkdGg9IjEuNyIgaGVpZ2h0PSIxLjciIHJ4PSIuMzgiIHRyYW5zZm9ybT0icm90YXRlKC00NSAxMi40MzUgMy4yKSIgZmlsbD0iI2ZmZiIvPjxyZWN0IHg9IjExLjU5IiB5PSI3LjE1IiB3aWR0aD0iMS43IiBoZWlnaHQ9IjEuNyIgcng9Ii4zOCIgdHJhbnNmb3JtPSJyb3RhdGUoLTQ1IDEyLjQ0MiA3Ljk5NikiIGZpbGw9IiNmZmYiLz48cGF0aCBkPSJNMTMuOTEgNS4zM2wuNjYtLjY2YS4zOC4zOCAwIDAxLjU0IDBsLjY2LjY2YS4zOC4zOCAwIDAxMCAuNTRsLS42Ni42NmEuMzguMzggMCAwMS0uNTQgMGwtLjY2LS42NmEuMzguMzggMCAwMTAtLjU0IiBmaWxsPSIjZmZmIi8+PC9zdmc+" vertex="1" parent="1">
          <mxGeometry x="811.75" y="90" width="60" height="60" as="geometry" />
        </mxCell>
        <mxCell id="qwJ5qURFDOFc9HHXz2gv-3" value="" style="shape=image;verticalLabelPosition=bottom;labelBackgroundColor=default;verticalAlign=top;aspect=fixed;imageAspect=0;image=data:image/png,iVBORw0KGgoAAAANSUhEUgAAAZ4AAADpCAYAAAAULFHCAAAgAElEQVR4nOydd3xc1Zm/n3PLNI26LFnuvQbb2NiYUAwmEGoghfBjk5CyKSzp2RQ2yZK+y7IJWZINSWBJWJIsIRASSoCQ2OAEsDHNBdx7UbGtOpKm3HvP+f1xZ0bdli1pJFnn+XzGHs3ce+6Zc8v3nPe873uEUkqh0Wg0Gk2OMIa6AhqNRqMZXWjh0Wg0Gk1O0cKj0Wg0mpyihUej0Wg0OUULj0aj0WhyihYejUaj0eQULTwajUajySlaeDQajUaTU7TwaDQajSanaOHRaDQaTU7RwnOSxFpaqKur7/b5ho2b+MQnPzsENeqd4VinkUBdXT23fut7zJy3iFu/9b2hrs4JibW0UFVdPdTV0Gj6jBaePrJh4yZu/db3WLzsPJafv5KZ8xbxxJNPZ7+PxxOsfnbNENawO8OhTlu37WDmvEXMnLeIvfv2H3fbT3zys93adSj46q3fori4iDWrnuJd1149pHXpC797+BFWXHx5To7V8Xx2fOkOjuZk0MLTB5548mmuu+FG5s+byzNPPsqaVU/x0AP3s/7lV1m7bv1QV29AqaquZua8RQPWg25sbARg5UUr+ONjT/S63YaNm7Lva48cGZBjnwp1dfWsfnYNF604n3GVlSxauGBAyh3odu3IygtXcP8v7h7wcnsicz4feuB+1qx6Kvv6t29/Y8COMZhtpRkeWENdgeFOVXU1n//iLfzw+7dx1RWXZT/PPJRiLS1DWLuRw9VXXs7nv3gLN77vBkpLS7p9/8gfH+fqKy8f8hFaMpUEoLx8zJDW42SYOmUyU6dMzukxy8vHMK6yMqfH1Jw+6BHPCfj782sBOolOR/Kj0U5/19XVc+9992fnB7Zu29Ftn6rqah586JGsmeKHP/pJNzPU3n37+eGPfpI1Y6x+bs1Jl9GVurp6nnjy6axJ6xOf/GynEdvq59bw4EOPAPDgQ49w7333dzpuVXV1tk4z5y3iwYce6bPwzp83l5UXrWDtS91HiHv37eeBBx/inLOXnXSdwTf/rH5uzXHbfu269dx73/3dyr/3vvuz261dt77b789815d6ZH5L1/N2onbtS906/sbM/FNmrnHrth2d9u9Le2RY/dya7G/64Y9+wr333c+9991/wmupN/rTTpn6nOgaPNF131Nb9dbGVdXV3Hvf/T3O22oGDy08J+Dr3/g2t3z5C33e/qu3foupUybzzJOPUlxcxDve9d5OF3VVdTUrLr6cltYWnnnyUZ558lHGVVZy6RXXZB8Me/ft59IrrmFcZSVrVj3F5z79SZ5b83zWHNWXMnrij4/7pq5bvvQF1qx6iuuvexc3fuTj2X2mTpnCzBnTAZg5Yzrz5syhcmxlp2Nm6vTMk49SVV3Nf/7gzj61SzAY4OorL+fxPz3V7bv1L7/KLV/+Qo8joRPVGXzzz3Nrnj9u22/Zto3bbr+jW/m33X5H1nw0dmxFt99fWJjf53r0dt5Kiot7bde+1q3jb1y2dAk/v6u93RsbGzvt35f2AN+E/OBDj2R/08wZ07nt9juYOmUyZWWl3erTF/rTThs2burTNXii676ntgqHQ9x2+x3d7o/XXt/I+pdf7fHa0wwiSnNcZsxdqP7nl/97wu1eXPuSmjF3odqydXv2s+ZYTM2Yu1C9uPal7Gd33Pnf6l+/+d1u+//rN7+b/bzj+57oSxkd63Q8/vWb31W//d3vs38frqpSM+YuVIerqrod8447/7vTZ8eO1XX7zV3J1OFwVVWP22faKPNZX9q7a5370vb/88v/7bEtup6f3n5/X+pxvPN2vHL7UrfMb+xY1wxdz3Nfr8UZcxeqVc8+1+2Yr2/Y2NtPzpb9+J+eUi+ufSn72rN3X6/7nEw7KXX8a/BkrvuubfXxmz/TqR6Zz7q2gWbw0SOeAWbunFnZ913NcAB3/eweLlxxXrfPL3/7JTzw4EPEWlp44MGHuPztl/R6jL6UcSIyLrjFxUW0tJ54+7t+dg8zZ0ynqro6+8rMh2R65SeitLSEm2/6GE8/85fsZy+/8iorL1rRqd1Otc4navuBord6nOi8DQTnLO9ujuyNvrRHOBQ+pXrs3LWbLdu2ZV81NbXdthnodjrZ675rW11/3bv4+je+nf1767YdrH52DQvPOOOk66LpH9q5IIdkvHSOd7PHYrEBKaOnB01dXT1/Xf1cp5sPOKEpMWOe+fwXb+nx+3A4dNz9O3LRivO57oYbs04GDz70CNdf967jHvtU6jzQnKgeI9ED64ffv437fvUbxo6tIBgM8NrrGwGYPn3aCfe9/rp39ehcMFjt1J/rPkNGYLZu28HcObPYtPkNbrj+Om1mGwK08JyAm2/6GLfdfgf/+KEb+11Wfn5+v7fpTxl3/vdPKS4u4rX1z2dv0J4mXLuSuTHv/8XdJ9Xj7omMe/Lal9Yzfdo0Vj+7hu//R+9Bmqda565UlJefWoX7WI++nJfBqtupsnPXbpYtXcJt/3kHq59dw803fYw1q57q12hxsNppIO6djiPuuXNm8fVvfJuHHjj5a0nTf7Sp7QRctOJ8gG5eZRlOxhsmPxpl5UUrWLf+5W7fbdm2jRuuvy67zZZt2/pVRk/1fODBh1i+bGmn75ubex5hJZOpTn/fcP11vdbpZPnh92/j8T89xdPP/IVbvvyFXh90J1vn41Fa0r1X29dz15d6nOi8Zejarv2t26lSV1fPXT+7h5UXruDnP7mTnVs28PnPfLJfLtID2U7Qua1O9brvykUrzueun92T9bTry+hOM/Bo4TkBixYu4OabPsYnbv4sDz70CHv37aequjqbyWDHzl0nVd6HPvA+7vrZPTzx5NPU1dVn3U9vu/0OPvzB92e3ue32O1i7bj1V1dXs3befe++7P3uz9KWMrpSWlnS74Z948mnu+tk9nbbL9BrXv/xqdi4HfDt6pk4ZW3pVdTWrn1tz0rFMi89cyOpn13DXz+7hrcuX97pdX+vcF8aOrcjuX1VdzdZtO/jqrd9i5UUrTrhvX+txvPPWW7v2t26nSqb3f+kV12RdqDOuy6camzYQ7QS9X4Onct13JTPivu9Xv+Hmmz42qHOBmt7RwtMHPv+ZT/Lzu+5k9XNruPSKa1hx8eX89O57WbZ0yUmbns5Zvoz7f3E3j//pKZafv5Ll56/k8T89xWOP/C4bBHjO8mX8/K47ufEjH2fFxZdz6RXXZD/vaxk98blPf5L1L7+ajYEAOrnlgt+z/OH3b+Pr3/g2Ky6+PBvHlDnmfb/6DYuXncfMeYtYcfHl7N23v083bzAQzL4fV1nJDddfxw3XX9fNqWDlRSuI5rWX15c694WpUybz87vu5PNfvIUVF1/Of/34J9zypS+wbOmSPu3fl3oc77z11q4DUbf+cPNNH2PenDnZ13NrnueLX/lar9ufaD6vv+0EJ74GT/a678p3v3Urq59dw2WXDq4jiOY4DLVb3UijORZTzbHYgJR17FidOnas7rjbnMitty9lnGyZHcseqGP2l77WebDL6uu+x9vueG03kL/zeLy+YWOPLtwn405+PAainZQanGtw1bPPnTDMQDO4aOeCk2Qgh+Z98aY5kc39VDxy+mrH763sofACGsj0LP0pq6/7Hm+747VfrtLQxOMJwJ+X6VifjGdbf5wlYGDaCQbnGnzwoUf47rduPeX9Nf1HC49GMwo5Z/kybr7pYyw/fyU33/QxCgryWf/yqwA89sjvTtu5j0zszi1fyq07vqYzQimlhroSGo1maKirq6c5FqOpqWlUJP6MtbQQi8VO+9853NHCo9FoNJqcor3aNBqNRpNTtPBoNBqNJqdo4dFoNBpNTtHCo9FoNJqcooVHo9FoNDlFC49Go9FocooWHo1Go9HkFC08Go1Go8kpWng0Go1Gk1O08Gg0Go0mp2jh0Wg0Gk1O0cKj0Wg0mpyihUej0Wg0OUULj0aj0WhyihYejUaj0eQULTwajUajySlaeDQajUaTU7TwaDQajSanaOHRaDQaTU7RwqPRaDSanKKFR6PRaDQ5RQuPRqPRaHKKFh6NRqPR5BQtPBqNRqPJKVp4NBqNRpNTtPBoNBqNJqdo4dFoNBpNTtHCo9FoNJqcYg11BfqFAqWU/16ATHnIhNvvYkXQwgyakClaCBD9Llaj0Wg0DHPhcVtTNG2pxWtzcFpTKKmQSRe3zfWFJu7gZYRGgHIk0vH6fVzDNhB2B+GxDay8IAgQhsCOBsAQGKaBFQ1gBi2KFlRihoZ1c2o0Gs2wYFg/KZ3mJAf+8Cap+jjC9IccCiAzylGZfzoMRwZiZKK6/tF5xCOEyB5LuopgcZjojFItPBqNRtMHhvmTUuFJD09KDCM9HSVoFwEBg2IDE73+4deqg/BJKfFk/0dZGo1GM1oY1sKjhEB6Es91UYY51NXpEel6eE7/55U0Go1mtDCshSdUGqF08XgOPrUVhQJj+M3weymH0hnj/XkfjUaj0ZyQYS08hm0y+dq30HY0Ru2L+zBDFgJBl0mYoUEIvKRD3oQiJl97BkZgWDelRqPRDBuG/dPSCgeYfsNi2mpjNG6vxQrbQ687AqQrMSyDydeeQd64wiGukEaj0YwchMrOlA9vGnceYcMdq4nXxjCDQ6uXSgFSMuWaBcx+39IhrYtGo9GMNEaM8ABUvbCbzT/5G248hdEhzibXKE8RLS9g7g3LCJVFUe4AebUJQao1SVtTCwBGyMYwO89rSU8SnVBM0YwxA3NMjUajyTEjSngAdv3+dbbetxYAYRk5Fx8hBK7jEndTGJaJ8tSAOXQrFJYwCVhWB0/xzqW7bSkmvX0ei7/4tgE6qkaj0eSWYT/H05Vp1y6ktaaJ3X/cgBmwEDn2dPMcjy0N1exuqEF5Mu3sMDC4SjK5sIyzxk1DIHxPvq7H9zxaa5tw21JYEe1Jp9FoRh4jTngM02DujcuJVTVS9fwu7HAgZ3nUvKRLyZkTOG/5IpYqD0MN8IDLFDi7GkisOQhS9SiqSiji9S2kYgktPJrBJ34Mmvem/xh+4Qw5RXkQKoPC6aO+KfrLiBMegEB+iIU3X0jbkWbqt9b4nm6D6WUtfNHJqyxk8c0XUjS9fJAOBDUv7uH5Z/ehHIkwuycPl1IRb2jFiTuDVgeNJkvdZtj4Y0CBGOXJ7N02mLASzvxndGL//jEihQcgf3wRiz59ES9+4zHajgyup5tyJUoo5n7g7EEVHYBUIoXnemkzXncllZ4k2Rwn2dQGlA5qXTQalAdeAi08gBcHqTt8A8GIFR6A8gUTWfhPK1j370/itCUxAgOfVkcphRd3mPnOM5l66fwBL7/78dIpglyJUN1vdOVJVEoSr2sZ9LpoNH6CXBMtPICwdBsMECNaeACmXvoWYlUNvPaTZzFSqkfzVH9w4w6l8ypZ8NELMOzBby6lwHNlesTTw/dSgecSr28d9LpoNBrNYDDihQdg/vveStPBBrb//hXMsN2+bEE/ka5HeEweSz9/CXkVuclOYARMPCRKSUQPc1ZKKZSUeI4e8ms0mpHJaSE8pm2y9FMX01LbyP6/78QeIG8vpRQibLP/+R0ceGEXSsoBKbc3DNOkYe8RPKVQAkQPIVZKKd/85w5uXTSaIcVMr4Hl9eA6KtLfS0Aq/z3pbTUjgtNCeABCxXks/+fLaK5t4tiOGuxIkP66uQnLoKm6gVfvXeObuHKAYZtYobSXXk/1FwrPdWk9FstJfTSaPiOAoOFnkZcKkrL9EjaF/x1ASoKjjuuS3NbmkXQl0ZCJbYn2cgQ4rqKlxSVkG4QDBq1tHgKIBPX8y0jhtBEegOKp5Zz75Sv4y9ceouVIDDtk9xiEeVIIMCL28bdRftYBpfzemRCig7nPP75SIJUfcJr9vpcbz1PHGc0ohSsl7kCl6dFoBgIDWto8/ryunppGl4mlNlecWYRlG2DA4dokT25owvEUy2dGWTwzD9we7s20dtz5ZC2PvFzPf31wEucuKPRFDCBo8PL2Zj51734+evEYblxRyo3/vQcl4Z5PTKGsJNBzuZphxWklPAATlk7n7E9dwrP/9iiplINpm4MW3uMLjUIIgWVZBENBQsEggUAAO2CnRQYQAsdxcZwUqWSKeDxBIplEeRKEaF9dtY/HlALsaHCQfpVGcwqYgsZWjx88XsO6Xa3MqgwyqzLEnGl5ADz2agNfuP8gSVfx7/8wkcXz88H1OqwoLNLZd/2AvOomhy2H4rQmPOiw1DymQUtSsuVwnJrGFLZlsGhKBCkhaKfvIyNTFv6+qou5zqDDCKqH7zWDzmknPADz3rGExkP1rLt7NdJjYD3dVHqeBYVtWUQjEQoLCsiLhAkEA9i2jTAMf1RjCAwhwDAQAoQwkFKSSqVoaWmloaGRxqYmEvEEIDAM0X6T9XZ4qVAGBAvCA/ebhgjXU7SkhroWwwMFBEyI2OJEl8CwRQgIBQymVwRpjnu8sD3GnJlRUs0Oa7a2MKE0QH2Li532zsYU7WY50n8LAa7CNgXhgJG+JwA7PacjIGj53wkEwaDBre+b6JeXkv48j0H7opEq/T4z/2O1l5MNOteik3NOS+EBWPqRC2msrmfTI+uxQwGEYfQ/zYVSSKUIWDZFBQUUFxYSCYWwbCtrWvM8DyGVLzSGgRQCYci0eU1iGCbhcJhIXoTyMWW0xePUHj1GbW0trW1xDOHfbL3fCwqJRJ4Gd0ttTPHEFo+U1z4/PFpJuTCnQvD2OSP5llQoBdMrglQ1pHjuzRj/+PYKdtYk2XYoztzxIV7Z0+ZfuRa0NXn87sV6Vr/RTMKRLJuRx4cvGkNpcbtpWwCYgvWbm/nF6mPYtsH4EhvbFNiWoLXV5Ru/q6Ioz+TL7xjLnzc28dgrTbxneTEvbIux+0iSD5xfymVLigDBX15t4Nd/r2dMgcUZk8I8+2aM95xdzFXLSnwBHPm31YhgJF/lx8UO2az43BXEjjSz98UdmCEL1Kk/3ZTys1AX5kUpLykhLxzxe2NK4TpudoTjC4yfZ00o5Y9+VPu8jlIKKQXCMDAMg0gkwvSpk6koL+PgoSqqampJuS6G2XMwrJISYQiChZFT/i3DBceDoy2KpBYeki5UFgx1LfqP40mmloeZWBLg79tiHKxJ8MK2GJYpWDo9j5d2tvpWAE/xn49V8eOnj1BeYBOyDVZtbmZndYIffngytumP/AKWwYF9rXz6FwfYcyTFrLFBXtimkBJsE5KO4qnXmxhbbPPFqyrYXZPkoXX17K5JkHQlmw/G2VWTYPHUPHbXJPjkvQdoSUhmVAT584Ym9h5NsWhyxB8laUfRnHFau4HkleZz2Tffw9kfW4kSAtfzkEri9fCSSuJJD9d1u70cz8UwBRXFpUwYU044EER6Hp7rIaXs/PIkKvu/Qnn++8z3Sma+9/A8F9fxj5EXyWP2zBnMmzOLSF6YlOu016trXQ2IlOQNdfP2GyHAMvQr8xrg2OchQUqIBAzetqCAtpTkkXUNrHqjmUVTIsyfECHlKmxLUFuV5MEXG5g3PsyT/zKL1d+ewxWLC3n81SY27W31hQeBacLTGxrZcjjBl94xlr/+2zxufvsYpFJ4yr+G8kJG1qMtYPmCdeWSIh7/6iyuXlLE/qMOR5odHn+tkfoWlztunMjT35nLu5eXYJuCgDXKez1DwGlwqR+fwspiZq+cjwgYuJ6bfZh3fblK4qFQpuj0EiGTUCjEhOIyyvILQPruzFJ6WaHJikpGdLq8VCfB6SxSmf9d10EpSWVFBQvmz6eoqJCk6+B2raeUCMsgXDzyhUdzeuJKxXlz8plYFuDXz9ex5WCcSxcUEA4a2emVWEIST0kmlgWYMjlC0bgQU8uDJF1Jc1x2MotXNToYAhZODhMeG2L2uBCG0e4/0BEvLXzLZuRRMjbE9IogIj2NdDTmEg0bLJwSIVIZYlal/522ruWe09bU1pGSSWWcdcO5/O3uvyLTpqqueCmXyUumc9Z15/heZkphBC3qt9VQ+8wObFfgpb1wfDNaR5OaAUIgM6a2tGlNZlyrjfbPOr5HCDAUUvnmOCUVUioKolEWzJ3Dxq1bOVJfj2Va2RvR9TwKiiIEoyPfuUBz+uFJRcpVjCsNcN7sKHc+dYS540OcNyef1/a14XoSx1NMrAgwc2yQ595s5rb/O0hBxOLhdQ1Mrwgyf6I/9+JKPxhi7jj/Wr/7r0c5UJfiiVcaSaZU1gnDk77pDXyBkUrhSsBVeNIXQtOAOZUhHnihnh88XsOyrTEefqkBM8freWl8RoXwhAoiTDtnNs/d81eU9DBE9/kTx3UpmljKgiuXZD9L1LVy9PFtiFYHGTDBU+3CkfFYQ4BQKOF72QjS4mIIDAnKEAivw/wP6f3SL5UuS6DSoqVwlCQajrBgzhxe27qVo3V1GOnkhKlkknBplEjRyJ/jGWxE+vyo48VF9bZvuvOh0u7yp1rOaMPIdLhsgxVzC7hn1TEWT8ljXEWQdbv8+R3XUwQLbW59z3i+/fvD3P5YDVLB/Akh/vXd4xg/NkQqvbKv6yquXFbC/3sjxoNr63nzYJxlM/IIp01rKn3MjAgZwv+762hIKXj/hWW8ureNh9Y1sPlgnNmVQUxTL60zFIwK4QFwUo6fAw2F6mEW0UXheS4qvQBbqjnOS//+JFXr9xCIBpFSIYREIXwRUCANEGk7szCk77yQESNlIA2JyHym0q6jSiCFgTDSmxpgSC/9vZF18XSUQ344whkzZ7LBUrQm4ggFylCUTh1DKH8UjniEwDAtzEw6lXRCVem5PW9u+CvUSs89qXRHQggMw/LNo8rFMH0vK+m5Wnx6w1WU5tv86COT/fkWR3LBvAIev2Um44oCoODc2VEe/8pMppYHodXjvDMK+HVliB01CZSCqeVBJlQEwZF84m1juOasIuZPCBONmPzgxom8/4JSivJMJhQH2HwozsTSAPkhk7s+OgnbMghYBtcuK2LR1AjzJ4QhLvnIRWW8fVEhk8qD2JbBV68dyxeurMA0BXf/9SiJlGJiWaBz7I9m0Bk1wqNQeEqmc511/96fxG8fvr/x67Ucen4nViTgiw4yO2KRguz7jLdap/dK+MLS0bzWaRuy7zOC5H+v0iMmf/SUchzyA2EuuGg5ZW+fjmGZSMejIEcJS4cTwjAxTJO2pmPEjh1EOinMQIho6XiCeYWdHhpCGAjDYMOTP6Vq+0ssv+4WSifN6VNiVcu2qTu8i7UPfJfx889l/kXvZ91D/0FrQzXnXP81oqWVSLdnoRvVKD+GZ+m8/GxMTTRi+lkHPAWOoqIkQEVFCNz2lDnlpQHKK9LB0OntAGZNijBrqvBjc5KSaJ7F+YsKfc8zT3FBWdAvx1MsnVeQPebEihATx4chpcBTTJ8QZvrkPDDghdcb+doDh5g7IUx1g8OzbzZzwdwoZ8+M6jxvOWb0CI/CT76ZfnXFU+lxkBDUvLKP7Q+/CkY6U4CUWfNaVlSyAtN5Xsf/20Ao2V1wVFpUhOy0r8x+nw40RbaXp8CqS1FsRylaODbn7TYcEIYfcbh1zYO88ddfcvTAm3ipBIZpsfDyT3DuP3wDJb3OoxohaKmrov7QNpxkW58zlgtLkGypZ8cLD2MHQ8y/6H3Ejh6k6cg+PCeJ0Oux9I6iPbUN+BMuiQ73mqfAS6d6ypwOV/Wc4saRkOknZJKFdhQHr0PKqI7H7FiewBcyx4OAwbjiACVRi+e3tZAfEnzmsnI+dFE55TrNTs4ZVcLjKt/UZvRwjblKgiVItSR441cvkGxow476btN+D7qD0KTt/p1idDoJkL9elKH8hImqk2NBxuEAX2g6OR6otGjRKftBsjnBvkffYN6UIgKFodw33hAihIEQBpv/eh9/v/+rWIEwZ6z8IAUVk2ms2o0djKA8D9O2MEz8TBWG//+57/8W577vm4BCepJAOIB08fPvWf42bsrxHUlMGysgsENgBcIEIgUYpo1pBbnsM3cjPY9MoEcgHMBz/DKEAZ4DnuOnYDCtAGnLHNIDwwTPbf9eM0SkJFPLgzzw2ekkHIVhQH7Y9P3YHW0+zTWjRniEKZD4o5ee4kg9JTECJgf/voOa9fswgqbfgxYCJdqTexpkHAPSEWdCoNKCk015Y4BK+41mTWpZRwQ6OBXIzo4KKr2vEO0jJiUQpqD1YAPHXj7AuLfNym3DDTGGZdFUs4+NT/0Mw7RZ+fEfMe/CqwiEwElBqg1QisPbXqJ6+0uUT11E7NghCiomk4q3EDt6iJnL30EyHmPPy39i7PTFuE6S2l2vMnbmWYyffx6mHaClrpq9rz6NlC7BSCHCNBGGgeem2PHiI3iuw4zl7+DItnUc2/8GE+afT93+N2ltrGXSwpWUTZqHMAwaq/aw9/VnMC2bkolzqN31GmMmv4UJ889LWwN1z3ooCYZMgpnpUYkWnSFi1AhPtKyAYHGE+qp6rED3n+0KxZE9tWw7mMRNOhgBC8+T6WzTYFgmhiGQ2dEJWdEgk226w4iIdI6p7m7Uqn2f9IjHUB1dsVX7nI8y0rneBNKV1K7dz5jlk0dVglDThIbq3TRW72bSgouYufwqqnds5fDWFzFNi2BeIZMXvY3q7et54TffpGT8bNqajrLk6s9Qu/d19r/+FybMeyst9VWse/DfKJ04FyfZxtF9myiqnMEVn/sFJRNn87f7v8bOF3+PHconWjoO6bmYVgDPTfLqo3eSSrYy9cy3cXDTs7z2+I+pnLOcuoPbaDl2iKlnXc4Vn/8lidYmVt39GQ5u/hvhglLCReXUH9zKmVfezMQzVoCUPZp5NTlEz+UMC3oUHuVJYjuP4LUkfU+rEY5hGRjNbZy9ZD51Y+sw7e7u1AoISRs7pZi4aEqn5LWe41F38Bhe0vUnuQ1ASd9VOjvSMVBpxxiR9naTIj1qMQw6Or2JzPL1hgQpUIYBHqTDgfyVRw0QQvqC5PkjoZYD9TRuP8KYJRNz13hDjQA32YbrJAnmFWGHYf/GVfztF4ouwu0AACAASURBVF8Bw6CoYhplk8/ADkVBKUL5paz8+A8prJhK7d7XsUORdHoiC2GYmHaQ8z/4HbY+9yCbnvkf6g5vJ97SwK51jzLtrKs4+71fYs8rT7P+999Pi4TACoVRafdFKxDC8xyKKmdy9nu+wgu//gZH9mwkVneYg2/8jQOb17Dw7R9jwds/yKY/30f9oW2Y9ujpKGg0faFX4Wl89SDJww2IHh7SIxIhWDxjGmLWDHozdyipkGTiNnwM0yAei9Nc24wTdzCE9HOtpZ0GEOlRUNrhgA5OB9k4H6WQ2SzVHT/3zXSZNXzoaK5D+Pt0GDF5bS4Nb9aMKuFREiJF5YSixdQd2ErD4RrecvH7qZh2Jmt/+x1idVX+hL/yhWHa0suZdtZykq3+zio9i63SaYgnzD+PmcvPJXasijdW3YcAmmr24DlJpp99JbPOWYQdyuf1J+5CyYz3WiaVMUjpEQhFmXXOtUxfdh471y2mqXYvSElTzV7sYIRZ572HmecspLXhat5Ydf/IdsFWEqSDf5GO/E5ov5AOKL0O1kDQq6lNGIZv5+4lWeVIREp5Ql/97IJuGQTdzCMZz7jOZjSVfe/H7Rj+aKWT55tKZzgwOpnpsovHZUx5XbIbZDIpKKGI7anDaUmOGnOb50pKJsxhwrzz2Ln2Dzx7zxdYdMVNhPJLkJ6L9Jz0+VEYpoUdzMNJgvQyyVnS5y7dxqZp4STTQpQ+t+GCMoRhcGDDKoorp7Jz7WOk4jGEmbk9OufOF4bpBzcm6fAwFkSKynGSrexa9yimJdj+wsMoKbPBvyMSMwjhsvah/GjGjYOdjw457T+9z/EIOnb0Tgv8ud2TtPEeZ72OrABl43OMjO+A7zLdzY2adnfpDiMjKdJZrDuMpLIxQUL4+a3SOaXaaptJ1LWOGuGRnksoWsjy67+O9Bz2b1rN3tee9tvatKictRQ7GMZ1kqTiLXhOMruvm4rjJNrS+fM8UolW3FQSBEjXIRVvwUm0MH3ZFUxauJKtf/ste157hpLxs1Cei5fyy3KScZxkHJTCc1I4iRY8z02bYROkEq14nsPM5e9g90uP8/oTP2bHi3+geNwMrGBoZM/rlC2Cpd8Y6loMD5SEwGmQQnwYMGqcCwYTJf18CMJQ6VgckXUawMh4vakOMT5dHA46uVl3cK/uMpoCcNpStFU3kz+5ZIh/de7wnBRjpszj0k/9nKpta2ms2YOSHtHScVRMX0KkuJxxs5ex4sP/QeWcs/FSfkLWeSs/wKSFbyNcUIYZCHPBjd+jfNoinISkfNoiVn70B4ydtYxIUQkrP/Zf7H3tKexAhIoZSzi05XmKx07HtAIsufrTSNfBDESYcuYlRIrKKRw7DSclmbn8GkonziWvqJxoaSUrP/5fHNmzgXBBGUf2bODwlucJFZQgTAMlR6CZJljgvzSaAUSoHrpjMuVy+JGNJKsaT585nlPEMA0SLQneXPUmbU2tGCfKXS8ysSf+fE123sfoMCoyughLx8DTrp9n3hvpOSWpmPX+pUy+6i25aYBBZH+95IHX3D6vx2OYNqYt2i0+qj1GxrQDWDa4qXTMjAA7GECY4MT99ZLskInrgJdKYdg2dlDgJtv3NwPtZZo2SNeP87FDNkJAKuFgWjamDW5SIl0XKxjAsHzT/5F9W3nt0TsZM30RyVgDm575H4QwuepLv2H83KU4yd5jeZIuLBwnePdCO5s943RFOa3QVt0ec5Dbo/sBVtGJiEA0x8fWZOj3iKd9stxHKVAqN+tj2qZFwLJJOinc4dKbTMdqKKXSGQmMbMiPb4fLBPikc7PJtO1cpZfsTbtP+4ngaL8vFSAU0pU48ROnfjkdkZ5Db6fZc1J4HSPdodODXilItrVHzUvXIdnBd8BzU3RM+eZ1aGInkerweefjuKkUpMAKBLCsAEf2bGDr3x/EskOMmXIGCy//BBUzFuOmdJqdDOroa3hrv+LPmRg57tg6rYixb8U853ZAC89Q0W/hkUqiOkRkGsLAtmxcz0UOsG1bQHqyw4/w33vsEHuOHmLeuOmU55cih4n3UGYQqTzlx+10M50Zae83lc6sq/zlrtPmOJThf9bB9EZ6xKO8EztIaHKP6zhEyyZw1ZcfINFShxAm0bLx5BWW6+SiXVBuHNl8EJwWP/1DThDgtkDRbOy33IQIl+bouJqeOOWzLhBYpsljG1bzxKbn/PPqeZTnl3DlGSs4Z8aZZJZ6HijsdC4SV7oELJunNv+Nnz73AN+65jO896zLSTiJYRcXrpTKjnZUNnGBzLpUy7TXmsxmOvC/z2REUBjtsT1CpTMmD7dfqSG9zHlx5VSEORXwTXWe5+iOQjcMlLBBBEDkSHjcBIQnYL31dozypbk5pqZXTv2sCzANgwP1Vfxtx8vMrJhC2A6y+dB2NhzYyvfe+XmWTTuDpONgmSZmOtGj43l4aXuJaRhYhuV7bimJ47nZh6ptWpiG6WeVlh4o+PvOV9lZu49rFq2konAMVy28iDPGz2bW2Cm40iVoB3A9CSgs08KVHm7afiIQ2JaVXg/Ey5btuG46xmPwyHq/pVPlGEJkXa07ulOTcUjIZCvIjO4y8z9wUun9NTlGKVwn1Z7cUtMjSoHMJP3MhSjLFBgB7KW3Yk26ZPCPpzkh/e5umIZJXjDM5y/5EJfOO5ev/+GHPPjKU2yt3s25MxcjlaK+pYmjLfVYhkll4RgiwRAp16U1GedIrJ62VILSaBFjC8pQKEzDoKGtmarGI1iGyYTiCupam7j7b7+jqrGW6WMmErKDFISiTC+fRH4wj1iildrmOkqjRZjCoDZWR1leMYWRKEopTMOkpukosUQb5fmlNMabQSnKC8qw0iI02Ch/AgzZJbO17y7tf9Z1FVN/QTJAyLTnnDHqEoVqTj+UJ/11qgfbBKlclHSxz/4y9rz3D+6xNH1mwMa5sXgLVU1HqGttJD8UYULxWJRS/HXLi/xm3RNsqd5F0Apw3ozF/OP51zG1bDz/t+4J1u/bRDyVwBQGN5x9NVcuXMG63Zu478VHOBqrxxSCG86+mg0Ht/HG4R2E7ABfevh2vnXNZ6huPMqv1j3Kbe/6ZwJ2gK/94Ycsm7qA+pZGXtn/JmdNfgtfvuwfmVw6nr9seYGfPvdbDjfWcM60MzlQX0VZtJhvX/NZyvKLcHpZTGww6BSAmnGl7ig4HT3aUFlvN6TCDJuEK/JzVtfBRinfv2KUhyYic9T5Hw74S42kT/xgdviUBDeB9ZYPEVj82cE7juak6bfw+FHZgjtX3c+dq36FAdy04gZWzF7KxkPbueOZX9KajPOuxZdS39rInzavASH4+lX/xIKJs1k67QzaUnH+48l7uPf5h1k8eR6/f/VpXtqzke9c81lmVkwBoTAMg5f3bSLhJLlg1lJmlE9mR+0+muIxXOlhSY/GtmZe3rOJc2csZnJpJWt2vMTb5p6DaZj8aPWvORar5+qFKzkaq2fXkQNEAhGGMluwUsp3QMjE//QkPtl0PKBcRSgvj7zK02shuNPce7hPnO4u1F1RUg6u8CiFSrVgTb+C0LnfRpijI+B6pNBv4VHpbFjzKqdT3XyM+pZG5o+bSUm0kE2vbONAfQ2fWvk+vnzZR6lpOkpt0zE2H9pObXMdtc3H+PObzxO2g1iGRXMiRlsqzvzxM/n7zle4f+0fuWTeW7l60UquWbSSZ958noN1NXzyovcxo3wSj21cjZ2eI8rMlSyfvojvvvNz/Hb9k3znibtoSyXYe+wg+48d5oZlV/Kdaz/H3mMH2VazZ9h4GimpOrtZZwJVsu7UvrOBm3IpmFJKuOT0cAMtjQiumGf6HuX9fPAK0nnuhiGKdA//OHgKSsLDs/4Djkpb2AbR1KacFsyxSwhdeDsiPHqCrUcK/Rce5c+O/MPZVxMNRvj0/32bH6/6FfPHzyAaysMQguZ4jFiilYbWZpoTreSH8njz8E7ueOaXXDjnbN595qX8aPWvaDjajCs9PrD8HcwYM5E/bf4bP179a6qbjvKFSz+EVIqUmyKWaMH1XD+gMlsRf55kTH4xAHnBCLZl+xP6+Dd/PJUglmihtrmOlOt0SgY61GS83xQKDIXRIQOCyLirK0nJ/HEYgdMjqDcaEiwcf3r8luMzfK6zYYHyF+bzXTkHfsSjnFaMwimEVv4As3j6gJev6T/9Fh7Hc4mn4sQSrVw87xzeu+wKfrTqV/x8zYO8e/GlLJgwm4de+TPbavYSS7Sw99hBPnPxB4iGIqRch02HthOLt7K/rgqpFAknxTNbXiASCLFgwmye2fI8nvQwhEk0GOZQYw1f/f0d/PPbP4JpGMSdJFJJpJLEnSQJJ4VSCsdziDtJ4k6CmeWTmVk+mcc3PcveukMIBG3JeNazbbiQdZP2lB8/2sHJQHmSUHGEirMmD20lhyFH6mM8/NdXWfPKDuqbWjsFNA8lmQ7PlMpSrlqxgCvPX4B1oswXowCl0qP8QTC1KTcBwSLCF96GPX75gJatGTj6JTxSKioKylgwcS7RUASlFNeeeQk7a/ezrWYPUkm+8Y5P8Zt1j7Hx0HbCgRCfv/TDvPPMtwGCf1h+NWu2v8yk0koqi8rZdWQ/0VCEmqaj/GXLi1imxXuWXMYNy64kGopw7ZlvoynewpHmOlqTbYwrLGfBhNnkBSMETIszxs9ibMEYXOlREM7njPGzKIrkM6F4LP9yxSf43xf/QEuyjbOnLqS66ShCgJWzALaTw1/9lPQ6PwIv6VC+ZDKFU8uGumrDijd2VfGJ7/yaF1/eDq6XzqI81LVK02FRp/v+8CIffNe5/OAL76EwGj7ubqMBpQZeeJSXAmGSd96tBOdcO2Dlagaefudqc6Ufl2MZFqZhYAgDx3NJukkCpk1e0B/ZxJ0khiHIC4T9jAZKpUc4SUKBIJ6UOJ5DwLRRKJLpfFt5gQiWYZLyHCzDJOGm8DwPy7T8uAnlvxf4oy/TMLEME09KXOlimxYgWLv7dQpCUQrDUf74+irue/ERbjj7Sr56xU140us1y8JJ52obBKQrsSMBLvr+9Yxdokc8GeqbWnn3F3/Oc6s3QF4IhvNoIuVCyuELN13Nf37+3cN2PioXJHc9Q+wPN4ITA8MemEKlh/KShN76RaIrv+uv0aQZtvS7ux8wbQw7gJeOqJdKErBsgpaNpyRJN4UhDKKhMChfqDJaZwiDvFAYKRW2aRIwLTzpLxkQCPkXpFSKVDo5liclQSuAsP33AkFQBPDSE5QB00am62CZJsH0HE/SdXjw5Sd5Zd8bRAJh2pJtLJ48n3eeeSmGEDjD3I/VSzpMv3IBFYtGzwJwfeHxNRt57sU3fdGxDH+GPp5M96SHCZYJ4QAELZCS+x5fyz++81zmTasc6poNIQqVGewMxKlSEplqJbTgA0Qv+LoWnRHAgORq65q40evyQU/bdPu8wwXoC1j37bNZDDr83XE7t8PqgCo9GhJCYBoGNyy7iuljJuFKj2mlEzh/1llUFo0h6Q7vMHM34VAwuZT5H1iOGM49+iHg5S37wfHAtsGThMNBrrl8KRMqitMZLIYWyzR4fdsBVr203TcB2hb1jS1s3HFwlAtPxp1a4ueT6mdZqRj2tEvIv+Q2hB3pf+U0g87wnOAYQDKjqxWzl3Lx3OXZz1zp5TRo9FSQjocZtFjw0Qsomlo+1NUZdiSSrp/JGwVJhxXnvYVffffDWNbw8ZTbvq+GS//pTg7sPwK2CQqaYskT73gao4Tlj3j6O8cjQDkJrIrFFFz1E4z80S3mI4nTXngypFwHBze9GvJw8mXrGeVKpCdZcONbmXHVwqGuzrCkq/daSUF0WIkOQDQSIj8S6pSWYDTO7ygnjnLjCDOAjDf4i+Ip+peuwXMRkXLyLvgXjMJJyHhDLwdXYFoYgfzRF6k7TBk1wgPpGJlTuc6V8t0/c4R0JdL1mHvDMhZ+bMWwijcaznhS4nkScxiZJF1PnjB4dDTQ9sbvaFv3U4QdRsbrUW4KMPs3x6P8JLqtL/2U1rU/8YNRe7hVlBPHHr+UwstvRwTy+nFAzUAxqoTnlFAKYZkIQ+ClPIzw4D7UvJQHKOb9w9ks+fTbMAP6FGlGPl7jAZJ7XkKYgGkirHQKm3459piotgaSu1cfdyuVBGXYKOUNG0/70U6vTzXlSZQrT9uhqUJhmiaWbdG52yXwPA/X8TMjeFISKoww731n88bv1tN6uBErZPsLtg1kfaTCTTgEC8Oc8cFzmff+czBH+bLjmmGMUw+t2/yneia3U3gahHrxvBQ2whYIM5RNb9V/FGAgrBM4FMg2/7hadoYNPQuPEATK8tK9/eFjthhITNOg8VgTRw9VYxjtv1FKSVFZIWXjy5BSojyJnR9m4iVzGLNkEht/vobDa3ejpMIMWP0WIKUUMuWhpKJ84UQWfeICxp8zs78/b1RgGYDrgmeA52IJ1auZrbGphYf++hqtiRSWYXR4Bg3sw8iVkkgowHsvWUJR/mnqYVX/LOz+KrRu9v8WwjdzBcbD5C/D+I/2uJtSA+U/fXKoDv9qhgc9Co9hm5RfOCun8xq5xrBMtv9+Dff+158IhgPZeZS2WJzLb7yU97/zYj+flMJf9C5kM2b+BC74t3ez+8lN7Pzj6zTuPoJMSd8cdhIClNlSOn6uqsKpZcy4eiEzrl5EqFjboMGfG0l5EteV1LUkSbgeDS0OKddDKTjakmBPm0loyjQs28R1PA67QX7zwm5MwyAasskPWihgbHGELbsO8bk7/khbQ7OvWJmHYGZhPWOARpeOS35pARcunnV6Ck/LG7D1I9C6D7o2WetO2PEZsEuh/J3d9x0a3elwzOMfXCkF3kCFVygQJsJsf8QqJWEgPWkNEzFQ122O6dXUZgRP/7kFzxQ0t7YSlG7WQ6q1pY0kHsI2ezR1BaIh5r53GbOuXMS+VVvY+5c3Oba1GplwEOm0pSqTAa6zBS/7vSclyhIUzxzL5IvmMOWSt5A/rigHv3j4svVwI89traWqoY2qxjjHYklqmuI0taaIp1xcqYinPDzpZ7xoTbkYhoE5aTZOOkf680clz931AgChgEHA9M9fXtDCkx5t42bDGBekA64DTsr/P9kGbU1pMepvmmwDM7OOxelI7UO+6FjZ1OntmIATh6q7YcyV/tLWIwjn2H6q7v8cXiLWSTBOBZlKUnDmlZRf9cXstdC2cy01v7vVF4v+WErSwfrl7/gK+WeMzBVVT391OQ5CgWWaWKaZHfFk/u5Koi1B07EmmhtitDS10tzYQqwhRm2JQ1W4FRWPE0oJIsIiYFhYwuh0X7qexFEeSenR7MRpNVzy6xLUvAkbd+8lLxomvyhKflkBhWWFRArzyCuKEi2LEsw7/Vccffil/dx630t+hH9XhEhPI3RoUENkvdiydHDPTSRcEsrvXTbHEv6+oTwIp+N+suUY0NIE+94EN9V/wTCG7/IMA0J85/G1WQDxPaDinYRHIPwVENKrf+QSJUEhOpnUeyTVSvOrj+PFJKKfT0aZhEBRRafryWusofml1f6qJ/2ZwZD+ZV5y7g39q+QQMqqFpyeEYRCPxTm8p4qDOw5xYMchqvZUUV9TT3N9jJaGFlqb23Bd3/tMmIb/AlAQEEZWeDou2+AqD0dJ3HR6HwOo3d7M7q37sTCwhMAyTUxhELBs8gvziBZFKSiJUlxRQtmUcsbOrKR4UhlF44sJnmZmHEMIP8DStk79puwkTj351cru1pbMRHfSSQtPh06HaYCZmQjvuKNq/090OZb0Oq0x08O4YNjjeR6pVKrzh8Jfgj3gprpZ2Dpv55uskq1tqEAYlEQYFm6yDUOC8BI5Hw0qCSoVp60tjhEK+DFEXTBMm0TSxYyWgmjq99y2kXSRVph4PI4wDIRhkfIUZkHAnxfu14jHX8E4JQ0SKRekSyAQOLGwDiNGtfD0dKJCkQCvP7eBTc9vouFII67j+XM9AkzTRBgGhiH8QMX0tSOUQKWfMCkkKS/Vw3ILAiHASBvclADTMtPPLQOFwPPtcaSUS2NDM011zVTvBAuBbdkEbYuCknzGTC6nYvZ4xi+cRMX8CRRNGvkZq0VGNHL9lJaKQMCicupYbOUiO3QXapsStCQy2RFEppId3gPZ2LD0BIaZgmA4+71MJ8PtfMjhPXdaV1fHm2+82en+UJiAYp5soNyEXk+UAfFEkldf2UxKlGDgoAyb6BFJfuE8EFbOhUd4KZLeWLa+vBlpRxGqh3kWw0IlYqhzbgHp0u/F2KXLsYJK9r70Ov7Dw0I1h1Arv0P/uyMKA4f61ii8uJZgwGLhwoVE8kZOZ3RUC4/rdL8AhWHQVB9DSYlhGthBu08BnO397MzDs/d9FApPgURiCIGpJEoIDCFQCFR6KQTTNBDCQAKuUijXIVXbQH1NI3vX7yL0UICiihImLpnClHNnM3H5DEJFI+fiGxakHKZOLOXXH7+CsQVhHM8/J1IpPver9Tz20mGI5oEZBDMAVgBM238ZBngeeCl/UtpzIN4CEcD2zUxNLW3UNbX6oycFhiUoLhjeyyI4jkNjQ2N2+XXwH3UATjgJJ0gorWSKZOsuUhT6wgO4BdNoXvjPg1zz49QJgdd64PgbCQMxdmJaGPvbORAoz4GmHe0fGRZi/LR+l60wcVQ+ynXw6o8RiUSQcuhzE54Mo1J4Em0JXnh8LX/5v1VYge7CYppGTlLs+0lOfXuNp8BQAo/0qEgJDCUwEQRsk0DAxowEEIaBSkg8BAnlcvTwUeoOHGHH05uomDueedecxYxL30Ig/zSZF8qMJjL3qlL+COREnYGOucA6btt1VKUUoUCAmZMqKAx1vh0Kiwsh0ADBKFhBsMNgB8GywQh0Fh436f8PEFLZ5csP1jRwtK7Z31YpQgGbKeNKT709coAQAsNMr4CbFR4TgUdQNKfTTvX+oIsYR1me9z3a3d78eBs1pFmjFSLXS91bQHBgixS4tMlyNiQ/R5sai5FeimakMeqEZ/fmPfz2jofZ+LdNSE8SCA+e541SfiAugDAzy1enjTJSpV/+MhCmZWBZJqZlEYwGySuMkFcUIVIYJlIUIVIcIVIawQpYHPjrbo69Xk3QtlCWgWWbxKXL/g17qXnjILue2czZn3wbFQtGzjIKnlR+pmkh0g2XbihT+J2AtNjYtoEnT2yuEgbZmB6pFNJLLzwmPX/5hEzZjkfK9UimXOgiPJ6Xnq/JvKSXfhmAP8fX/lnm5c/8ZrRu4/ZDfqxRwIaUx5iSKJVlhQPefgOK8udpunbIFOCqEApBd1/qzltGjarBrOGpMdIm23rBwMEgherkRTu8zbddGVXCs/WVbfzkiz/n0K7DhCIhrIFOR6PIXgDKUwhDUDAuH2EIYjUteK6HMASWbRLKDxMuCBEpDPsCUxwmrziPvKIIofwQwXCAQJ6NFbT9zrvru1CmWpK4hiQlXZQUWIbCQmEJAytooKRk5/NbaTxcx8XffDfjz5o6sL9xkIiELMaMzWd8aZSy/ACl0SCFeQFKokGKIwGKIgGiIZtxxWF+vmoHv12zq2cPOADHY9q4Qr75nkVUFIZojjvUt6RoSTjUtyY52pygviXFkeYEB461UJo/8J0PyzRwXY9V67eBl84A4nrMmTKWipL8AT/eQKOUovMakR4I2JZ6H/vdt2dNb5ltu9Juctb0mQ7Pjwxd21Gg8FSIhCpGKKeH8zQyGDXCE2ts4bc/eJiDOw8RyY+ceuLNrNVHtY9a0r1zYbRfJHbIZuKSSiYsHo9Sksb9MWxlk18e9cUlGiIUDRLKD2JaZrYcKRWJlgTxWJyG6kbaGuPE69uIN7aRaEiQakqQOBrHNAHlZzyQov1lCgM7YlK9u5rnf/Q077jzRsIjICj1fedO4/KFEyjOsykI2+QFe59IWLO1FlzZuxlDKSIBi8sWjKcsv3dbR1NbirrWJI4rKYoMrPiEAjbrN+9h3cY9/mgnbSJcvmAawcAArbo5SPTce/b7101qNo3uPP+jtAdbr51t4ZvtRlhnPPekp5R6E5Cs403ma6EwSCGQ/Ut1N4SMGuE5vKuK3Zv3EoqE+iY66d5HJ3GB7L7CEAQiAYLhAHbYJlwQIq80j2hxHvkleYQKQ8iQixIKJWHC4ijl5WMIBAK4jkeiJUkilqCxpomW+lZa61v9/xviJFoSpFpTJFtTuAkXg7QfjBJYQhCwbUzDwEThKYUpJJ4w8ISJmRYgETCo3lXFke3VTF4+Y/AadoAYWxhmbGHfJt2dPizyJpWiLeVyPCN7YSRA4QALDviu4SnH5XfPvEK8scVfITXlUlxezLUXLRrw4w00ZaVlvPXct2b9+4QQtMXb2Lp1K8lEMuvt5rkukyZNYtKkSZ0emkIIXNdl69atNDfHhmS5+BGFVJiWyazZsykqLOz0rEk5Dtu2bSPWoR0916VsbAUzZ85ESYVhGITDw9thpSujRngU0p/vPYHoeK70V0dUfuqgQCSAHbSwwzaRwjDR0ij5pXlES/IIF4QJ5YcI54cIRAIYppF+CRItCY7UHsWTLoZl0FbfxuYNW2itjxNvipOIJYg3J0i0JvEcD+UpPzecVFlvImH4L4nv8SbS3m4u0p+3wECS+d+PzTNRvrccYCqXtmQiB62r6UgwYLFlTzVPv/Cmv/Q1gONy8dlzOGPm+KGtXB8IhoJUhCo6fZZIJNixfYd/fQr/wSilJBqNMqZ8TLcylFLs2r3LTxOjtM3teGSEpmxMKcVFxZ2+k1Kye1fndpRSEglHGDOme7uPFEaN8GArXCMFUiBM0aM5QUlF6cRiyqeWESkKE87MvxT67+2gjWmbWLaJAlLxFKm4Qyru0FjbRFtDnFhdC60NbbQ1tiGFpGRaEaZtcGhDDUe3H/PXZkmb5XyB8Xs2whRYVu+nQ6JAyXS0iB8NJJXCEwJTqfRIR2IKA2mYmJ6i2WsiGRzeq6yedqQDA/+w6nV27j8CAQs8iRkJAYS6fgAAIABJREFUccNlSzFHUJBfR1y35+uoNzde13VH5NzDUOK53QNbe2vHkeY+3ZVRIzxFpUWIAkXjkQbKCscghOh0QqUrCeUHOef/LWXc3Eo/p5oncRMOTtIlFU/RWN1MW2MrrY1x2pritDW20drQSltjnFTcQboS13GR6eUkDENQs/UIAJ7jYVgGZj+C5yQKodKjN/yRkInw53fSIyAbAVJyuKWWZFhSNm7k9opGJKbBsaZW/rDlDf/hYFmQclhw5nQuWjprqGun0QwLRo3wFJcWEy3J443YZrAVhaEibDMI+PM3whB4jkfV9hoSsQQt/7+9Mw+O47rv/KePuWeAAUCQ4AGCh3iIkniIpkjKtGhSkk2REinJdpzYVbJT2ap1ObYTZ7OVKm9tpbJbqY2rso6vlR2lvJK80Zac2HIsS4pXsSxZFyNToiSaonmJFEmQAIhzMPd09+v9o9GNwXAGB3EMMHgfVHOA4UzPm57p9+33O3tTpAYypPszpPsyZBJZzLyJWTAx8ybCEsMJdsrwykXVVLSi9svCHCqRM0V2bmfFY6PYTmFMGwUN1Sk8ZwsKokBvto8P+i9w4+obaVrQOCWvO5tQiisIlH8EKEp1VheKQj5vkO8ZdFY/tg0K/MG+bTTUzf4gD4lkJpg3whMMBVmwcAGWsOjLdZM2kkT9dcT8dfi0AJqmIgybd589jqIpGDnDmTOGIkoU8IRG1ctXri7HVDeMc7GdYSFwyq3nzDypwiCJQoKskcG0TZa1LsUfmFsVgseNMlqN/SqbeJSh3CNDgYLJwsWNHNy9sbpjmgJs20bYAmXI12DbY+SP2OXCsiWlCFuMeozsoYtj9zG1cEznjfAALGldjK7rKCgUrDy92askCwmCeoiQHiGkh9BVH5jgKwp5nQ3JWcrQVbxbzMO2BXkzT87MkjMzZIwMBZF3HqsoqKgsaVuCVqbS9mykfzBNz0CK/sEsfYk0qWye3v4UqVye3oE0QggGUllyuQJvne+F7r7K1SWETXvyEl/871dorg/TVB9FUSAeCxOLBIlFgjTWhamPhYhHwzQ3xFjYFPNaY0wdNpgWB+7YyLoVLVO8b4lk7jKvhGfx8sXoPh3bdkIQFRQMUaCQz5PMJ/Bpfvyqn4AeJKAH8al+dNWHpmo4SQswXIJlOH9h8h0Oi+pYu3Xe3CuaoUx+0zaxLBNTGOTMPAUzS17kMUTBMRWieKUz3CuilqWLyrzW7OB35zt459Ql3jnVzskPOunsHqRvMMXAYJbewQx23m3INVRxYOhXsJ1Gbk4iU4W9KyQGbJ7+4ALDy1aGyuUM/a6rxKIh6qMhFjREWdgQY9WyBWxcs4xtN7excc2yyZvqTEGgPsIf7Ns2uf1IJDXG/BKe1sVomjYiIkRhuB6VIQoUrDxpI+WUsVF0fJoPXfXhU334tCEhUnRURfVCnIf3MZT3UPSaXs5XmfF4iahDFYxtBEI45gxLmJi2gWEZGFYBUxgYwsCyTc/E4b7uNaVNbBt/0M+CloVTdOSmlr/537/gbx55lsRAyrnDEk4tM7c0jqoOhyGXHriJrEo0rahy9BD28C/JwQzJgRTtF64OjcHZvy8c4IG7biXT1OaM43oXQgWDHbdv4MObV1/nDiSS2mReCc+ChQuIRMMkBgbLmqCKRQhsZ+I3CkP/hycyjuhoaKqGqmioKKiKM0FpijaiD4+iqKgoWPbIUEmnhqXlCI5tIRAIIbBsa+h+MWzbZTihTPFuK8+GlmnR0BRnwaLZ2S5hcXM9y5c08b5tk0lmnUkfnNWJwKmLVtr8zb11VzDjEYMRWfVukTy76P+KWhooTmFPPRxkYWOMJQvjfMBoq6oxEAI0ld//+IcIB2vDz+aupIt9DRN5vKQ83jEaxWV5jY9nFpj/J8O8Ep66eD3NixfS3zswZml31/xVupoQCIQtnJ4dVrmuO8P/ur8qKGVOvlGeqwz/PZbIlEMIQSxeR3PL7BSez923k0N7NvPb0+0cP3uFc5d7uNjZR3vXAF29g/QPpikYFqbpFPAUtg2GOSwU5lAxTp/m5MkUYwnID+Wc6JqzesIGXXOCQjQVv67h0zVikQALG+toaaqjbUkTK5Y0sX5FC7fe2MrShQ089P1XndI813OOF0xWrVrMPbffPMmjJZFQ9XiZqWZeCU99Qx3Nixdw8t2T170PpVgVJiAJ15bpmaicjB9hCWL1MRpncSh1PBriI7eu4SO3rgGc1uCpTI5MziCdzdMzkCKRytI/mCGXN+juT2IJp5ZdbyKFYZi88X4PR053OyY6BTAFrQuj7Nu0lKBPoykedSp429AUjxAJB4iFA8RjYRbEo9RFg4QCfiJBP8EyteGs603SswFLcP/ezbTN8hYIEkk1mFfCE4qEaF7U7JS7r3GaWxYQDM+dnjy6phKPhYkPFW5es3xs/9TfPHuCI4+9AUG/IzxZg5u3t/HIn++Z3sGOhWURaYrxwN7ZX5dt3NgVTG2jRVNLU9u48I5ThYPphrGr9nDw0FxfAc3N+h2ToHnxQlRNrdmTwY3YW7Zi2fVX4J4jGIY5sk+OLTAtk1yZ0iMzSsHgzu3rue2WVdUdh2TuUJvTUUXm1YoHoGVpC4FgwCl2qNXexGzbzvta0jb7i1FOFl+Zz09TFIJ6FXOXLIEeCfDpj2/C75vd7Q8mQnES43id3HLFMz4mehxlcMEcpGXZIvx+P/l8HrUWF3w2aJrG4mWLqz2SKefk5QF+daILTVXQNYU3z/USigbQdRUFMHSV7sEc333+JAGfRt6wWNNSx8c3Lpm5QVqCWDTCh25qm7nXnCHKZdCPXrhACs94GFN4Jnjc5wLzTngWLl5IIBggl6vNdgFCCOridTQ0N4z94DlEbzLPFx57g1+/3Q4+3fHpqAqaqlAoDJvWjl7o463H3nD+MAQLmsL801fuYM+GmRNit25fzTHRsF5ZMmdceEIykXDqOX5Ma/CSf3Tq4nU0NjdgW3P7g6uEZVnEF8RpbIpXeyhTho3NXz71zkjRAbBtLDFys4sD0XwqPd0p/tMTb9Hem57ZMc/xiaEcdpmfiT5e/lT4GS24oMLPXGbeCU+0LkrLspY538+iEsKyiDfU0zCLQ6knyuMvv8/3nz/p5O1oylB1g6LyN8UMrYS8Lajz9qkuvvZPRymYtfmZzxTFvoYxkx4rPF5u5TdhV/hu2hWO+xxn3glPOBpm0ZJFNRtSLWxoWNBIJFYbJfiPvN/D1548ilUQlYuCjoaigE/n/7z8Pg//2/Xnb0kYNgcVbRWvvO0SE5LcxrddcxhHOYZzmHnn41EUhYWLZ2cNs8li2zaaprK4tTYqIfem8nz1iSN0dCUhNIkIMU0BQ/DfnnqXW5bHufOmGQw2qCHKRVeNOgFKH8+4GNPUVoNRbfNuxQPQvKSZQDBQc+Y2R3g0lq1YVu2hTJq8afOfnzzKa29fcbp4mvbkNkWlvzvDlx5/kzNdqWq/vTnJRHwNmk8jEolgCavi8+SP8yMsQSAQIBwOj/u4z3Xm3YoHnFyeUCRENpNFrUaXymnCFZ6lcyyHRwhBJpNBCKelt6ap/Os77fzq7XMsW+hH09UpMS3YaPT09vMP/+9dvnboFnyqghgyFwUCAQKBwORfpFYpY+YZbcWjKiptK9q4eOkipmmia/NyqhkTpxK9RevyVmKxWOUHFpvXpKltbrJo6SKCoSCZVKbaQ5lSbNsmFAnR0Dy3Aguy2Sxv/PsbpNNpNE1DUcDKmfyPj0bQNWXqTjLF8YEJ0c2rL78y1OrIxrZtNmzYwOobZPuCStjY15p8xOhX30uWLGHDhg0c/+1xCoWCc5E3ySjz6atwOD6mYrWhoDjHUzjHcnnbctavXz/ai9ZcOPW8FJ76eD3Ruig9XT3VHsqUIiybeFMcVEE6k0ZYAl3X0TQNXddn7erOtm0ymUyR8CjoqkJAKy7IOhrjn4wUBYRqk8uZCCG8k98wjLGfPM8pNfWMNQkrisItt9xCLBrj3PlzJBKJkb2wRsl1UoqqtI8YQ+mEaxf/OjWT8TXiVlxsvsKYRxOCSv8XiURYtmwZa9asIRisXFex3HGf6+a2eSE8lmVhGAaGYWBjk8lnaGhu4Pzp89Ue2pQihEW8KU4oEiadTmMaptcoTtM0fD6ft80mIbJtG9MyMUzDEYMZuqJz378lLCxRm1GOU0nZ4IIxUBSFlatWsrxtOblc7prn2NgjTHdCiBGrAWE7bSnKfS+EECOEzH3+ZCnt1eVeDLnvx71VVdU7v9y/3e9U6ePL4fP5xmXevZ7jPtuZFcJz7Ngxstks27dvn7J9umKTz+cpFAqYptO5U1EVgqEgrataOfLrI1P2erMBy7RoaW2hrqHOea9DX3r3BHWv6t0VkN/v97ZqZtqHw2Hu2H0HwhIUCgWOHz/O4ODgUMvxkSead/IxbO5xcyBse3jCKjUNFU9clmWhqio7duxg8eLFWJZFNBqd4Xc9BykN5Z2Ar0FVVUKhkHf83c9ECMfHUfw5AcMCMmRmKjeRV/PCSVGu7bHlfseKhci96HNFqfj+cTOJ4z5bmRXCc+7cOX74wx9yxx13cOjQIVauXHnd+zIMg1wuRy6X88QGGG4RbYMv6GP3PXfw8r++TH93/5xqH1CJQq5AtC7KRz62C92nk8/mvf8r/ZJbloVlWU69OlXF7/cTDAYJBoNVOZk1TaOp0elbY5om58+dJ5fNeVeeZYVn6FYIpzGfbdvYlo1Qiv4umsxKJwpFUWhsbKSpSfbLGS9jmXyEEN53q9zvxWIzFnOx5NBYK5HSlZGqqp4ouSZx975ioS097m534rnMrBAen89HNpvl2Wef5e233+aee+5h3759xOPjL/timiaZTIZsNuslh3piU0IhV2DTjk18/quf49FvPEbf1T40XUPVnC/AXPjS27YThmlZFpZhEYqE+OQffZJtu7dhFEb3VxS/P9u2PaH2+/2Ew2FCoVDVjoFpmteYVUYTnhEZ3RM8GWs1iXg6cIW71Nxlmib5fJ5cLjdCZFyKL/zc22JT1lw41ybLNebFoVWfaTqdckuPjStAfr/fu3iWprZpwFV8n89Hd3c3jz/+OIcPH+a+++7jjjvuwO8fvWd9NpslmUxiGEZFsSnG/eD3f3o/y1a28sK//JLTx8/Q391HOpVxlrGK08nTEhaaqqGoY+93unBFRlEVb0UihCAQChBvjLNy3QruPHQnO+7cgaZpWBPsR+O+r0KhQKFQIJfLUVdXh67Piq+HZBZQ7oJAURS6uroARlzsFd9Kxke5iytVVbEsi3Q6PWLFPlW+rIlgWdY1vq/JMO0zi6vqlVBVdcRj/H4/tm1z6tQpzp07x2uvvcYDDzzAxo0byz4/nU6TTCYRQkzITORO5LfevoWbt95EMpGku6Obf/7Bj/nV078iGAwSioTQdI1MMk026zhGXREqdSwqSvkonPHiXdWIYfOQu6mqSiQaRlFVjIKBaZhs2bmFT/6HT7CkbSlNCxuJRMMYBXPColOMO1m4q8Z4PI6vhnrKSMaP6xPM5/MIIRgYGPDEpXhivHr1Kp2dndUcas3jmt6KxSmfzzt+UE3D7/dPu6Wmo6OD559/ng9/+MOsW7du0vubNuEZHBzk6aef5oMPPhjVmaZpGpcvXx4hGoqiEAwGEULw+uuv89577/HRj36UAwcO0NY23OfEMAxSqZRnw58otrDJ5/Komkp8QZzlq5dz9PWjPP/U8xTyBe44cAcPPnQ/5898QMelTq5evkpvVw+9V/tI9Cco5AsYBSdazjRMhDUsfoqqVMw5sAF7KFrHFjYooPt9+Hw6/pDj7I/VR1m0bBHNi5tpWdbCqnUrefG5X/NvT/0bqqqyesNqdu/bTTaXxTIsckU+ncmiqiqFQoFkMklDQ4O8ep0n2LZNoVAgn8+Tz+c905l75e0+pvjKOxQKEYlEaq4KyGxAURSEECSTSUzTHHEeuq4FN5jBjZALBALTcrFoGAbPP/88v/zlLzl48CB33333pPyj0yI8Qgh+8pOf8MQTT3j2ykrYto2u62XNOm4kTCaT4Wc/+xlHjhxh//797Nmzh6amJu/kmOzEKCxnZZHL5jAKJgoKwhZEomFu3nYLG7be5PhCsjmyqSy5bI5UIsXVzm76rvYy0Jcg0ZcgPZgmk05jWYJMMk0+Xyg7NkVRiNZF0X064XCIUDREvKmBhgVxGhc00tSygPp4HeFYmEg0QjAUxB8M8N7bv8MyLNSAimmYZDNZDNNwxGuKURSFfD6PaZpy1VPjCCHI5XJks1kKhcI1ATnF0ZHFwmMYBitXrmT9+vVjWjYkE0dVVXK5HEePHmVgYOCaYJviz8W9WNA0jUAgQCgUmtJoVVVVCQaDXLlyhccff5zXXnuN+++/n4985CNjukLKMS3Ck8vlOHHiBJqmEQqFJr0/N+LjypUrPPzww5w4cYI/+ZM/GTXpaioQliCfy2OZlheKHa2PUtdQx6Kli1i9oSjTXRlaQWVzCGE7k7ZhVhSeQDCAqqkEggE0nwYlF4yeuc0SZDNZp7SGZU0681sicXEDS9LpNIVCAagckOM+vnTF415ty1Xx1OO6IYoDO2Ck8BSHmoPji3GDrILBIJFI5LqEoRT3M/b7/WiaxpkzZ/jmN7/JK6+8wv3338/mzZsntL9pEZ5AIMCSJUt48803R4QGVsINIayEEE5+RzAYZPfu3Rw4cIBYLIZt26iqet2mtonghetaIxVixOsqoPl0dBQCoYAXvj3yCTgJcW5inCVG+GXKRaxU46S2bZtgMCgDDGoUy7IYHBwkm80C4/+OlSvdMt4QacnEGRG1OY6SOe7naNu2t4KNRqNEIte2SRkYGCCXy4352ft8Prq6ukYEkASDQSzL4vDhw7z33nvs3r2bgwcPsnz58nG9r2mZVTRN45Of/CSpVIqzZ89eo8rFuMtJ9wQopriUycaNGzlw4AC7du0aIVKxWIzBwcFRX2M6GfEFsIvKdszhSF0hBD6fj2g0Kq9kaxA3WCCXy00oIKcWw3rnAqXHfSJ5UJZlkUgksG3bS5K2bZsXXniBn//858M19EbB9fmmUqkRc69r0cpmszz99NMcPXqUffv2cffdd9PQ0DDqPqftcra1tZW/+Iu/4MqVK16Yc9kB6DovvfQSTz31FDCcjWyaJqZp0trayj333MPdd99dtnprJBJBURSSyeSU+HtM03SSF3UNw5g9dmtFAdNwxmaZTlWGqTa7uV/sQCBAXV3dlCzRJbOPdDrtJQ9PlPFeeUumjomseEpxzXGpVMoLPGhvb+exxx6js7Nz3Oe4oigVI+dcH31nZyePPvoor732Gvfeey+333572ZUWTHM4td/vZ8WKFWM+bvHixd6KxXWUxeNx9uzZw4EDB2htbR31+eFwGJ/PRzqdJpfLeVcEEy1LYZkWbTe0ceehO9FUlbU3r/EcqtXEtm1M02L1+lXcdehONF1jzU03OGa/qWgXMPT+dF0nHA4TDodnTR03ydRzPQVR3dw3twIBMOJ3yfThHvfivydi2nTFxzAMfD4fg4ODDAwMEAqFpjQ3x+/3YxgGb7/9Nn19fSxdupQNGzaUfeysMOC72bmFQoFAIMCuXbs4dOhQxdydcvh8PuLxuJdF7WZSu4xHhPK5PLfftZOde3d4z5lMXsxUUsgV2H1gN3fccwfghGtPJpKo2EFZXDJH+nRqn3JO6bEeD3hJ3sUXJfICZfpxj3upmWuiuJ/jwoULaW1t5dSpU+PuQTVWEInrhw+Hw+zdu5f9+/ezZs2aivubFbOMaZoYhsGNN97IoUOH2LVr13WH8Lqx7JFIxCsQWigUrimPUukA+nw+FHXIQSdmPkN4NCYzttI6ZT6fD7/fTyAQwO/3ywlkHhEOh71K0eMRH8uyCIfDbN++/ZrvnN/vl6WHpgnX13rrrbdec4x9Pt+4j7sQgmAw6IlMc3Mzf/zHf8yzzz5LT8/YrWE0TSObzdLe3n5NPpG7YFBVlc2bN/PAAw9w2223jfm9mhXC09TUxEMPPcSBAwcmVJ9tNFy7YyQS8YTNzUtxl6qlZgLX1Fca2jxbGO/Yyr0v93i4glN65SqZPwQCAerr6xkcHBx3RKimadTV1V1zfzXKt8wnFEUp69sez3F354FgMEh9ff2I8/3mm2/mpptuIpVKjWku1TSNCxcu8PWvf53e3l7PKmIYBpZl0dbWxr333svevXsr+nRKmRXCs2PHDnbt2jVt+3cn3VAo5BUxdIMXDMPw7hvLnzNbIrxGG2NxxdviHjxu8cHZ8h4k1SUcDqPrOslkknzeqXox2nfD9fFIZp6JHvfikkbhcJhoNFr2IrOSqJWjWLgsy6JQKNDU1MRdd93F/v37aWlpmdAYZ4XwzKRfwS1HXmzKKy3h7q6Kiku5l6vMWw2Ky6q7v7uiUqm0ukRSDr/fT2NjI9lslkwm4zRKLMmKl8wdigUnGAwSDoenLDLVnROz2SyxWIw777yTgwcPjt6yexRmhfBUm3JiBMNhi64AlQpR6W3xc8rtx6VSdnjx/aVNo0rFpniTSK4XRVG8VhhuUI5hGCMCV6QIzU6K5xR3/nJ93FOdCuFelN9yyy184hOf4Pbbb59URJwUnlEobtw0FqOthEozu0t7klR6bYlkplAUhVAoRCgUwjRNr1ioa8cvvXCSVIdSsSntJDxdF6LhcJiHHnqI2267bUr88FJ4pojRTkbXFCaRzAVcn2g4HPbCZA3D8FZC5fJ3pBhNPaXHuLhvmbvpuj4jVo+WlpYJ+3FGQwqPRCKpiOsvCAaDnlnZDcpxg3RKE0tLkaJUmUq1GYsjUV3/rbvVgnldCo9EIhkXxa2Z3ZyQ4ooG5bbSVgqV9luLjBWI5B7P4gChclstIoVHIpFcN8VX5sW4fk13lVQqRqWBOVMRMTqVAjYVY6kUEOQKSmmQUK0KcDmk8EgkkilnrIjL4nYKxcJTGkFa2nahWBAqRZBOltKo09LuyO6tKxblIk1L7x+tz9F8RAqPRCKZcYrNdqNRKiSjpS5MVZ7daMJTvDKRQnL9SOGRSCSzltLJvVZ9HvONuR8eIZFIJJI5hRQeiUQikcwo0tRWZbLZLIcPHyaRSLB+/XpuvPHGag9JIpFIphUpPFWkt7eXRx55hJdffhnDMFi0aBFf+cpX2L59e7WHJpFIJNOGNLVVib6+Pr797W/z4osven2DOjs7efXVV6teAVsikUimE7niqQL9/f18+9vf5vDhw4RCoYqhmxKJZHr44IMPsG2blStXVnso8xI5y80w+XyeH/zgB7z++usEg0FPdHK5HEuXLmXv3r0yP0AimUZ++9vf8td//de8/vrr1R7KvEWueGaYn//857zwwgsEAgFvdZPL5VixYgVf/OIX2bhxY5VHKJHULq+99hqPPPII586dY8OGDdUezrxFCs8McurUKX7605+O6MeTy+Voa2vjz/7sz1i7dm2VRyiR1C7PPPMMP/zhDxkcHCQSiXD16lXS6TSRSKTaQ5t3SOGZIQzD4Kc//Snd3d2Ew2HvvsbGRr7whS9I0ZFIpolCocCTTz7Jj3/8Y0zTJBgMYhgGHR0dJBIJKTxVQPp4ZojTp0/z1ltveS1phRAoisKnP/1ptmzZUuXRSSS1STKZ5Hvf+x5PPvkkQgjv/FNVlUQiQWdnZ5VHOD+RwjNDHD16lMHBQc/EVigU2Lx5Mx/72MeqPDKJpDbp7OzkG9/4Bs8995zXTM1FVVUKhQLnz5+v4gjnL9LUNgOYpsmJEye8qrfuldddd91FKBSq9vAkkprjzJkzPPzww7z33nvXpCyAU3zUNE0uXLhQpRHOb6TwzADJZJL+/n7vy29ZFi0tLTKqRiKZBt566y2+//3vc/HixbKiU0xXVxfZbFZeAM4wUnhmgEKhgGVZ3glg2zbhcFh+2SWSKeaXv/wlDz/8MP39/cRisVFFR9d1+vr6GBgYkOfiDCN9PDNAKBTC5/N5XRRVVaWnp4eurq4qj2z2MZPJszJRt/ZoaGhg79693HLLLWiaNmr5Kfc8vHr16gyOUAJSeGaEaDRKa2urdxJomsbAwABPPfUUhUKhyqObXUgxkEyGrVu38qUvfYm/+qu/4mtf+xrLly/HNM0Rj3HPQ0VRMAyDS5cuVWOo8xopPDOAqqrcdttt6LruhVH7fD5eeuklvve97zE4OFjtIVYdIQR9fX2cPHmSVCo1rTXrXMfy2bNn6ejokOJfgzQ0NBAIBBgYGBhxv2VZGIZBLpfDMAwZ2VYlpI9nhti2bRsbNmzg3XffJRwOo6oquq7zi1/8gsuXL/PAAw+wdetWL89gKrEsiwsXLtDc3EwsFpvy/U+W3p5e3n//fa5evYphGOi6Pu0rH0VR6OrsYjAxSH19PStXrmRZ6zJZpLVGOHPmDN/5znfo6ekhEAgAwwnb9913Hx0dHRw7dowPPviAc+fOUSgUpuXck5RHCs8MUVdXx2c+8xna29sZGBjwarX5/X6OHTvGmTNn2Lx5M3v27GHTpk3U19dP2WtblsUTTzxBMpnks5/9LJs2bZqyfU+Wc+fPceL4CXK5HJqmeSHn094aQsF7nZ6eHvr6+uju7ubmW272JirJ3OT06dN861vf4tKlSwSDQcA5BwAeeOABHnzwQcDJ83nrrbfo7OwklUrR2NhYtTHPN6TwzCBbtmzhD//wD3nkkUdIpVJedepgMIhpmhw+fJi33nqLFStWcOutt7J+/XpWrVpFQ0MDPp/vul/Xtm0ymQxvvPEGFy5cYN++fRw4cICFCxdO4bubOFeuXOHYu8cwDRNNdxJrbeyZ6UdkO8fFxkbVVGxh8/7776PrOps2zx5hlkyMI0eO8Pd///e0t7d7omPbNvl8nv3793Pw4EHvsS0tLRw4cMAL+pHMHFJ4ZpiPfexjhMNhHnvsMS5evEggEEDTNG8TQnD27FlOnTpFOBymqamJtrY21q4G6PjZAAAOC0lEQVRdy9KlS1m8eDHNzc2Ew+ERmdijoaoqmqYRDodJpVL86Ec/4siRIzz44IPs3r17UqI2GTo6Oshmsvj9foTlnPyKomBrNgrTH2QgbIGwxAih6+joYP36tQSCMrx2LmEYBs899xxPPvkk/f39I0Qnl8uxc+dOPve5z5U9Z6R5deaRwlMFdu3aRWtrKz/5yU945ZVXSKfT+P1+dF33zG/gVDy4cuUK7e3tvPrqqwSDQerr66mrq6O5uZlFixaxcOFCGhsbqauro76+nkgkQjQaJRKJeH6SYvOVz+dD13XOnz/vNaP71Kc+xfr162f8OOi6jmVZXo6TjSM4mqY5qxDbnlazmy1sLGE5r4MT4eSKtGTucOnSJZ588klefvllhBCe6AghyOfzbNu2jS9/+cs0NDRUeaQSFyk8VaKtrY0//dM/5fbbb+eFF17g3XffJZFIeBFv7gToToK27Zigent76e7u5uzZs9797momGo0SDAYJh8PebTQaxe/309nZ6a1sFEUhEAhgWRavvPIKJ0+eZN++fezfv5+mpqYZOwYrVqzgcvtlenp60H06qjLcn0hVVW9TFGXEVam3GprgosgVYF3X0VTHn2SZjvCYpok/4GfN2jXoPulkngskk0leeOEFnnnmGS5dukQgEPC+45Zlkc/n2blzJ1/+8pdZsGBBlUcrKUaxZ8SgLhkNy7L43e9+x29+8xuOHTvGxYsXSafT3oTrRnmVi/RyPz4hBEI4ZiP3tnjF44pZOQzDwLIs1q1bx4MPPsiuXbtm7Kp/oH+Ad959h0sXL2EJyxEEdfh9KigoqjJCgBQUJzgAZ5VkC9vzDdnCRthihA/Hy9sY2pdL8TFraGhg06ZNrFixwvv/zz78Mv/3pQsQi4EeAD0IvgDoPlD9oKpgWWAVwMw7t5kkjWGbw//1Tta21M3IMZxv5HI5fvOb3/Dcc89x7NgxbNseERBiGAZCCD7+8Y/z+c9/nng8XsXRSsohhWeWkUwmOX36NCdOnODEiRN0dnYyMDBAJpPxxGfEJFxBkIopFqHRHuOGlG7fvp1PfepTrFmzZirfWkXcYo3vv/8+PT09ZLNZb7yuWI4YvzK86lEUxREZbGcFVOHb7K4Yizefz0e8Ic6KthWsWrWKaDQ64jlSeGYXiUSCN998kxdffJHf/va35PN5/H6/9x1xTWvxeJzf+73f49ChQ+P2g0pmFvmpzDJisRhbt25l69atFAoFuru7uXjxIhcvXuTKlStcunSJvr4+crmctwkhRohQ8UrHvR1rBeMKWTab5eTJk1y5cmXGhEfXdVavXk1bW5tXSqizs5P+/n4v0c/1AxUL0Ghi6l5PFWep+3w+/H4/sViMRYsWeYEalep0Kc4OnK2Soo18Ve+xqizAMCXYts2lS5c4fPgwhw8fHpFz4/pyYHjVvnHjRj7zmc/IHlezHCk8sxi/38/SpUtZunQpO3fuRAhBJpMhmUx6uSd9fX309/fT39/P4OAgg4ODJJNJstkslmUhhPAc+JUwDAPTNGlpaeHOO+/k7rvvZvHixTP4Th10XaelpYWWlhZuuukmMpkMiUTCe1+ZTIZsNks+nyefz2MYRtn9qKpKIBDA7/cTDoe9gItYLEY8Hvf8XmNhojmrG10HVQdFBUVhKAloaGPoVgVFA82HreL8Lblu+vr6eOedd3jzzTd57733uHr1KrZtXyM4pmlSKBRoaWlh//797N+/n7o6udKc7UjhmUOoqko0GiUajV4jDEIICoWCt5mmSTKZxDAMrl69yqOPPkpvb+8I04Npml42965duzhw4MAIH0c10XWdurq6EZOIEALTND0hrZR/4a7w3OZf4/VX2baNaVn4FJu3LyX59w4b6hdCwAeqzxETVXdMbN6LqaDpjujoPtCCJGyTnx/v56sfDWIrKjC2OVQCPT09nDp1infeeYfjx49z+fJlcrmct1Itru5umiamadLQ0MCOHTu47777WL16dZXfgWS8SB/PPCCTyfDVr37Vyxty61WFw2G2b9/OgQMHuPnmm6s9zBmlePJyBdiyLDTFxjAF//HHF/nZsSQEfaBqQ8KjOL8r6pAIqY5pTVjA0K0QYJi01Cv86PeXsHVZhJzlRNK5oexu2Px8x7IsOjo6OHv2LMeOHePEiRN0dHR4VSxKj5Prh7Rtm8bGRrZt28a+ffu48cYbq/guJNeDXPHMA3p7e8nn84ATEeT3+9m2bRsHDx5k69at82YStG0bwzDI5/PeqrDYBKkAfr/KP77TyzMnBkDXcHw77jaeVYsNOnT25vnbl7v53iEdn656x98Nk/f5fJ45cL7kDdm2TXd3N5cvX+bUqVOcOHGC9vZ2uru7MQzD88MV+9xs28ayLEzTRNM0li9fzs6dO9m1axc33HBDFd+NZDJI4ZkHuNE+pmmyefNm9u/fz44dO+ZN8yvTNL1ADNM0R5joik1gIZ/Kia4M3/h1J5YhnNXO9aKrPHMiyZ5VYf5oWxMZIbAZDuE2DINsNoumaQQCAUKhUM0VqUwkEvT29tLZ2cm5c+c4f/48HR0d3qrGtm0vXaDYbwPDVaQB4vE469atY/v27XzoQx+qeqknyeSRwjMPUBSF1atX84lPfIJ9+/ZdEzZcq5imSSaT8QQHqBh+rqsK2YLgf77UwYWuLAQnKQIq2HnBt17t4fblYdYtDJE1xDWv7Zr6stksgUCAcDg8JUVKXbF1K6FPF/l8nkwmQyqVor+/34tI7OrqoquriytXrjA4OOitWlyfW7HPBoZXNq7vrq6ujnXr1rFlyxa2bNnC2rVrZWh0DSF9PPOAXC5HPp+f0orXsxm3KGo6nfZMOKM59xUgEtD4wb938uf/chEL1Ylk09yAAq0ouGAsH48FtgXCdPw9uQJ/sK2Bbx5c5vQBEpVPNzffyo3Eu96J9vjx4/zsZz/zKi7H43FisRjRaJT6+novpFxRFEKhEJFI5JqyRIqikM/nSSaTAKTTabLZrCcyAwMDpFIpEokEfX199Pb2kslkMAxj2F82FOBRLt/MTXR2A0ZUVaW+vp6lS5eyceNGNm3axNq1awmHw9d1DCSzG3kJMQ8IBoPXmDJqFTear9iUMxZBn8rJrgzf+fUVLMOC4BT5XBRAV/jnt/vYuzrCpzcvIF2wKmYEuXXpUqkUhUKBWCw24c+tq6uL7373u5w+fRq/3+9N8K5fya1g4VbDKC7LVIorCoDnDysOxihOYi5uaVG6moHhFY0b3m/bNqFQiAULFrBmzRrWr1/PjTfeSFtbmxSbeYAUHknNYJomiUTCq/U2nhBmXVUoWIK/e7Gdcx1pCE1xLx5VwcyafOOlDrYui7CiKUjOqFyG3528DcNgYGCAeDw+IfFpb2+nvb2dSCQyQlDcag2u3ySXy3n3j0a5ZGQ3vLkcxZUhXOESQnhRfY2NjaxcuZKVK1dyww03sGrVKpqbm6UZbZ4hP21JTWDbNoODg57ojAcFZ7Xzj7/p5MdHu0CfJl+IX+N3F1P8r1ev8PX7VqKpCtYoJjdwJnghBIlEwlutjIfm5mYaGhro6Ojwmg0WV7QoFZLxUipQbo27YpOZu8J0V1FNTU0sWrSIRYsW0drayooVK1iyZAnNzc2y2d48R/p4JDVBOp32qnuPl5BP5czVNL//6HHOdeacgAJVH/LjaJP38dgCLNPZCgZhn+AfPrOGe29uIl0YX/MxIQShUIiGhoZxv7cXX3yRp556ikQiQTab9cyOxZtL6d+lVCrB5JrUIpGIVxkiHo+zaNEilixZwpIlS2hqaqKxsXHeBLNIxo9c8UjmPG6zr4mgqwoFU/B3v7rAuctJCE2zD0xTyKQN/vaFi2xtjbIwFiBnji0+iqJQKBQwDGPc4dZ79uxhy5Yt9PX1kU6nPVFOJpOk02lSqRTJZBJVVUkkEuTz+bI+GU3TqK+vR9M0gsGg53Oqr6+nvr7e6/sUi8Woq6uTvhnJuJHCI5nzuKae8aIAPl3hx2928pMjHdNnYivFr/H2uQG+/8ol/ss9q1EVBTEOH4vXL2gCeT7xeHzUdgCl7TQqraZcP5Es+SOZSuZHyrpEUoRfV7nUm+VbL3xAIWeCNkOnwdDc/YPX2nnjfD8BffyT+VRP/K65zPUfuaV8SrfxtN2QSCaKXPFI5jxup9Lx9B1yHq8wmDO5kshBwQLFBA3nMkxVnFsFR5CUofs0Mfy7W5FaHWqDIGxAOHk7Qgz5doTj67GKNxMMi6QpuJosjGusxdn9EkmtIL/NkjmPoigEg0GvHtpY5A2LFU1h/vLeNbzxwSC6T0NxAwdQRt66rRAU976h1ZHXIgFHbNxePLYY3ooLh9rOrWGatDX42bmqgYI1tnnQ7a4phUdSS8ioNklNYNu216l1POHUChD0q2iKylAL05IOpqWnhV35z7ILF2Xk7+6+FUefcqYYM6RaCIHP56OhoWHc4dQSyVxACo+kZrAsi4GBgbJRWuVQvH9mnrHOOjfpsqGhoeaKh0okUngkNYVlWSSTSTKZDDA3o7Fs28bn83l11SSSWkMKj6TmsG2bbDZLKpUaUZV6NuMmcmqaRigUIhqNzps+PZL5hxQeSc3ithvIZrOeAMHsEiH39FNVdUrbIkgksxkpPJKax7IsrxGcYRgVG8HNBMWnm6I4LbEDgQDBYFCa1STzBik8knmDWwGgtPV1uV40U/maxft1c3JcwfH7/fOm9bhE4uIJj9QfSS1TqT+M22LZLd/v9owpLcEz3vYBxX+7ia1utebifjilYiPPP0ktc835IVc8EolEIplJ5BpfIpFIJDPK/wdFchBgzQ1FJQAAAABJRU5ErkJggg==;" vertex="1" parent="1">
          <mxGeometry x="-230" y="159.89999999999998" width="318.43" height="179.21" as="geometry" />
        </mxCell>
        <mxCell id="qwJ5qURFDOFc9HHXz2gv-7" value="" style="shape=image;verticalLabelPosition=bottom;labelBackgroundColor=default;verticalAlign=top;aspect=fixed;imageAspect=0;image=data:image/png,iVBORw0KGgoAAAANSUhEUgAAAHkAAAB5CAYAAAAd+o5JAAAgAElEQVR4nO2d+ZMd13XfP+d2v33e7JgBBjsILhapfaWkSLIsJVGqZLucOKlU/Afk38mv+SW/xVVxknJsl6yNsixRMimJEikSJEjs22CZfXnztu578sNduh9IUQQwQ4LCHNYj5vXr9X7Pfs69Laqq7NMfNJkP+gb2ae9pH+RHgPZBfgRoH+RHgPZBfgRoH+RHgPZBfgRoH+RHgPZBfgRoH+RHgPZBfgRoH+RHgPZBfgQo/aBvYC/IWkuWZWRZxtbWFuvb2xgxTIy1aDabVCoVKpUKxjwaPP4HB/La2hpnL1/j3NoWdzJlNYOtYY6I0EoT2ikcTJWnpsb5yMljTE5OftC3vOckfyj15M3NTV6+cJkXb63xRtdyhRqb9TZ5WkeMAKAKxg4Z725wLO/yRDPhUzNjfO70Caanpz/gJ9g7+tCDnGUZr507z0+v3uFftnIu1qbo1VuQJBgxCKCUHlEAVdRakkGP491Vnq3n/KsjB/jkU09QrVY/qEfZM/rQgpznORevXONXN27z49tbvJpM0G1NIGkKCNbmqFrUKopgAVAMkCYJYhJEIM+G1LsdPpJt8LXpKp87eognTh7/g7LXH0qQb926xUsXr/GjxTV+bcZZb4yj1RoG0CzHomQKVpVWahivJNRSIbewOczZGFpQqBrBJAmSpuigx0RnjU9Lhz85OMEnji2wsLDwQT/qrtCHCuStrS3OXL7Kj6/c5vleyq36JFm9hTGCZkNUlRxBVZmsJJxoVTnRqnKsWWW8YsgUrnQGnN/uc607ZHlgyXJLmgikCWKhMuwz31nli7UhXzk2x1OHDzIzM/NBP/oD0YcC5MFgwIUrV/nZ5Zt8b33I1doU3XoLk6RoNkRQBMjVOVeHGxW+dajNN+fHmW+kVI2QiKDAwFrWBjkvrnb4h8UtXt/oMQQSAUGQtILmQ2r9Lof7m3y1mfH1k4c5dfQwrVbrAx6J+6OHGuQ8z7l9Z4lfXrrG9xY3OJO2Wau2SGpNNMvAWtS7VYoD+WSryl8eneLfLbSZq1d+57k3hzkvLHf466tr/Gq9CxgHtCoYp8LzwYCJ3gZPDjf549kGX37sGIcXDpEkyfs1BLtCDy3IS0tLvHzpGt+7vs5r1LlVaUOrjQ4HSJaDSMzXWVUyVcYrCX91fIq/Oj7FZO13Axyom1u+e3OD/3FpjXPbAyoiGBFQEBQSg1Qq5N0d5gfbfMJu8ScLE3zixFHm5+f3eAR2jx66ZEiv1+PNy1f5zrnr/KIrXK1NkbcnsXmO9roIuDBI1IkvilX3IB8dr/Ol2dZ7AhigkRienR3jpdU+F7f75Op4B4czYnO0b5FaneVGk3/aTDl/dYPP3n6Vr59c5iMnjtFut/doJHaPHhqQh8MhV69f57m3rvL8Vs5b6TidiTYJoP1+EetKwFbAB0a5QiMRPj3d4LGxe4tzp6spT49X+ZfllJu9DLWMZvQt0B9iDdjmBBca49zsrPHam3f4/I0l/vjEIZ44eYJarfbAY7BX9FCAvLy8zE/fOM8/L+/wSlZnqT5DUqsj+dANuo9vXYwUjvKSLIK1ljQ1zNcrjKf39kiJwKFGhUP1lNs7Q1QgQVBRrzWUyFl5hiB029Ocydpc66zz+mvX+ePbK3ztqcceWhX+gYK8ubnJi2fP89NbG/y6K1yrz6ATTcgz7HDgBlnFqWcgelgSkBaw3n4CqQgYedt1fh81EqGRSGEG8Jf0TBSvbRWMhaFFjGFrfJYXek2urmzwygtn+MrB6zz71GkmJibub0D2iD4QkPv9PmfOXeD5q7d5fjPjfG2GbLzl0o0eXKeeSwPs/9USCAFrp761+Mi9AT1UZagaTLzjJc9MgvC2s/m0KFah2mCx3uR2p8P5K6ucXf0Nzx6e5eNPnKZer9/r0OwJva8gqyoXL1/h55dv8E93djgjLXZaB5C0AtaCzX0IYwjyqT4GdggEmXWAOE9YwTq7vDbM6WY5jcp7fyyrsDbIWe3nONsgqLiPv+liZ/EHiPsHwOQ5kgu23uTNapUrvW1eOnuHry5v8NUTC5w+eQK5R6bbbXrfQF5cvMlvLl/nJzdW+FXe5HbzoAdXIRuOSF8AVjyo5V9EI+xRwI1A31rObnS5dWCMk+8ZZKWX5VzZGnC7l6EiJLhYWYh8NeIGOIdvVIujFrUWEUOvNcXLwxYXVtd5c+MiX7m5xCdPHObI4cP3PGa7RXsO8mAw4JW3zvPDCzf4yU7KYv0Aeb0BYrBZBiHc1VBCcH8KIMH5CWTdDyKGMvqJEYa58spqh1fXxzjaqpIagbcr2hGyFt7Y6PHSaofNQYYx4qTOAqoOyBEuC/ahQN6K1ysWIHM3n1bYbs/y3KDHK9fX+MrKm/ybtU2ePnWcZrP5QON5P7SnIHe7Xf755df4X1dWeS0Zp9MaI6lUkCxH8+GotfMGVtWPrLxdisM2dNROhr+vdIb88OYGC80Kn5huOkfsXaiTW15a63F2qxevpXoXpgHEeC0ZcQYLPtCoztVmiICtNrhVqfF3wx5vvr7In62s8fWPPvW+1673DOSdnR2+/+tX+Z/XNzlbncXWW5g8Qwd9CPCq93KMkwxVcc6xKj5yIlfxDFB4WWotYsrhrDsus/DCUofECJvDnI9ONpmqpl6q/eHq7PdA4U4m2DSllaas9TNQx0Q2eF/u1IVd9j6dlEB32LrsuaggaotgIM8QEQb1MX5LwuadJbZfepVvf+qZ97XosSdpzcFgwI9+/Qr//dIGZ+uzSLUGw6Hn9rvUqEstuZsRKHKVhU28W7TUS1K0zCGWRRhmSj0Vnhqv8+yBMT413WShWaGZJkxUU6wYtjNYy6Gjyp3ukP93+Q4/u7kOeGfubeTPH9Jt1m/2Ln6QdIMZZQ7c71hFqjXywZDT2zf5Lwfr/Omzn3nfEih7AvKZc+f5b786z88qB6DehMxJr75DOOIuL05C3lG7hmCqFMyUTKPIXUIHZDkkRpmoJsxUE2pJwql2g2+dmGG+WaeXC30FjNMKL9ze4DuXl7jR6ZGE/HVxg/7k4lV3+RkKg6Llb/H+Ct0vCJJUMMMen+nd4b8+tcCnn/mj98Xz3nV1vbW1xc/OX+NV28Q0Wuiw7+LK0j5BQqOQqqLi0lnlPEc5bpWR0SuOD+oyHCMKFQM5sNLLud0d0suVqztDppp1vnioSiNN4rmNGB4fb3FqosPidg+Lvk2ao81VKWxvvJ3ApNEfjyTFke6vPEPrLV7ttXju8i1OHT74vtjnXe9xOXd9kZ+sD9iqt9DhIMaeEmyWHxDREKr4j/WtOqLeebXuWC/pFrAq7iP+o0puFau2ZLcdVxigYpRGYhivGDqDjN8ub7Ha67uSoijq8xlTjZQnJ1vMN2uu8cBaLO68FkHVkFvXWTJSwdBwTYu6Pd0zBQa2gljBeEdRrcUOBnQa47zchXPXFnk/ioC7CnKe51xY3uCiNNFqgzzPC2BUUSy5Wqy1ODXsa8FSsrEW1CricRMEo4pY16kVP+oH1avQ3Pp8irohVw0JCyURw9Barm53ubDRpZvliErIoyBiOD3Z4onJMQxC7jNnDk6LiI3yaK27f8cAWjyfv77DXin+s2i8f8fMJqlwQ6u8fHOZTqezmxC8I+0qyKurq1xZ26JHGgfJM3qkQtNp/CtQyErerfbKGnJkI6X0pt71m9cC5YTJxiDjzMo264MhSTklDUzVK5yaaDBVr3hP/647DlxjPYjWf/zfMQUWz+oZ2DNTcbcKNmejUueNzpCNra13HsxdpF21yetb2yz1BuS0PFtrREGc1gaKqKRIddiR86i6JIP/RlCP8XRxu/HfirClYIagIp00JSL0s5wLmx2ubHaZrFbBGIeNOq/6aLvOqYkmK72B6/0yziEMYJrEYJKEpJKSJIY8z8mHGXmWO7BzwSTiVXDhor2NnW2OjE1wZ6tDb5A96LD/XtpVkLe6PZaHik3F21cZBaaU3YixZvCqyo4VimrhTZfyI0VYFX1pxxEhnJa7PDcXlblUaAKs9wa8vLTJwliDhXad3KesrcKBZp3Tk2OcXdlmvTf0psRSqVWpNutUG3WSNKFSrWKMIc9ysuGQbJAx7Pbo7/TJ86G/vETP2edI3B17Dk/SKplJnWnYY9pVkDe7fZYzIU+T2PMcyMJovIMQc9RRn5XlsJCGt2UVIwN4kEvZsiI5WtIOoSYtQj9Xzq5t8/TsOLPNKqLiEy5QSwwnxhucmGjw6mAIaUKj1WBscpzmxBiVhgP37njJ5sqg22NnY4udzQ79zo7zR8TE1OiIpvFp2VE53zvaVZAV7xkH6Y12zzpOVt8AF1ETYhwcgl4vpb4eVMp1lGywO6k/RSEtKqFcWLLgTpuDcVIuqqz3Ms6ubnNioslMvUY4Xa5woFnlI7MT3Mpg2KgzPjlOrdUgSY2TznD6GD4LYqCetqjWazTGx9heXWdnY5tBf4DNrZ+mI9HQh+eyo4OxZ7SrIAuC8cn9khflPWTxsht39qQhSorh0ogNiz/KyHioKDHXEAa8LBUB6DJX+FBmkFsurHVYPNBjpl5FjDsyt1AzKY9NjXOrVud6UsVUXFo0REvxdsJltLhMUk1pVsaoNmrUWy221zfpbnUY9geoWkQEIya6ZXsvw452X5Jx3ZNyt5fsJbTwhHX0J1tsK+cirASGkRHpDQyg0aYXLhnYokHEBmNeqP9clds7fd5a63B0rMFEvRrDLwSm6ylPpCnrQ6Gjvvj1ds/unQYAgLRSYWxmgnq7SWdtk621DQadLnnuSpKIcabqfWqU3f0JPxJsoRa2SyWGGlZ92EERKTv/t+Qja/ERfzxaSK6gmBCixGsVnxi2WP83Dl71sp4AveGQ15bWubTZ9fftLpMDNRHmE2HWQHJ3dPR7qGhOESr1GuNz0xw4usDkwQPUWw0kMdHTc7z5IVPXkdRzaXApKext9FlKXFwq0Yeycigyu23ismUUmwDFhMSh1ZJaLtwukbs0AEHLKCKGtRxuZJbTFupSmO9cYQw4bGBZYFvB6KiGeadntqoONPWxtDh7XB9rkNZS6u062yub7GxuY33deu8h3m2QFbBShDEluyujG0aMm9wlwGVDq+Xjo50NQbc/R/kEEn6xTjkrUebVg5vWKjQnJ2jPTLLRarCcweG0uD0L1AQWEriUQycfif5GniGGd0FDeSmOYHsGNGlCY3yMSq1GvT1Gd6iYnZtYm9/HQN8b7YEku4ct5QwJeQuX3/VJfg3OVNlBoySZMiI6UTJhRJq1HGaN+Gjl81s3AT0xNCfatGcmaU60SRo11oxw08IBC4khJraMwJiBwwmsWeh6viruwbOflqpkXhWob20Jlsa1B7nIqVKrkKQpdQyyM8XFpVWOzM/tacfInqjrmOsJHrNI9H9GdGd0pEbwuetMjG4Nbm5w5MqnuWu3kHkyJqHZbtCanaQ5MUa92cAkCblCN4frwEEDhyRGat42wzED1w10bQlUr5bj43htIRLYONymFl6PgubE8mM1MfQOLvD3y9e5/NIZvjDb5skTx2k0Gvcx4u9Ouwyy93a9wzMadxBjQ0Gcyg2oWGJHTUwQRFsa3CaIsh695buv7v8ted21Ro2x6UlaU21a42OYShp3NO7S3LawaGE2iU0qTvkojBs4KMq6WHoqGNT7B1qkW6T8mLZgaJ+fdRKthdJSyPIhSavNldrj3Fq5zcU7S3x67TW+fHyBw7vc9LfLIIdGmODHum0BF6TwiGMeyxam1m0fVcnWO2xJ2DmIfSluLku/9V58WqvSmhpnbGaC1uQ4aTV11yzxRrAI3Rxu5XDEwEziL2GdNKcKRxO4bZXFTOOThVBQjbsvh6kPjUoxsFh/z4a4VX1IaIc5GEN/boEzkzPcWLnFxQs3+cydZT517MiutQjtcpwMal3pTby6kpEfi2baGDqUVGSwsIV1dgKvEgoWd9vkeIpisyr1VoP23DTjB6aotRogpfg87ly074soSxZuZjBpBOMZyJfCmTAwb4RVlB11xQ7wuXkbWBvnTfsqlYvl/b++1FiwsD/eekdNBalU2Th0nOe3pji/dJ0bZ87xjdN9juzCage7bpM1tjlFX7lIOIVvfk7TSEgSGGCEK4jH2+h2y12oFserKvV2k+nD87TnpkiSlJHOThnd15ZOtZUrtwQWLEwmbuCtv0RF4LARFg3sZOVzeS4IJTMDcbalVULLV2waKYWUoVAhCuSK5hZNDKY9yc1ak+8tXWf7zSt821qOHznyXob+d9KuJ0MEnN2KPq9X3kUmY0Tr+uAmeqKuJSCcSaJ3LqoYASNu8pvB2Uzj7baipLUK43MztOemqVQqhccLsdgfvGHnFrjuEMWZhdsWFnMlD5qIEBgIk0aYMVAVF5ypFbCBWz07WHyToaDG3bNY9QzutYOqS3GqC7VCpQ51QOeDHpKmbMwf4yeNOZ67eI3Nzc0HwmRXQS4LplgtWnzK+ecAihb2WX3HY8xUFehTqIDC2scfg51XxRjD2JSLfZNKGpMqoUsjkAagPVcVLUiwkSs3fBenSrC3jicTcR74hMHXqP2NRokP34n/qkO1mDcVpFglqupQzVGKZ7eDAQBbcwu8qHVeOn+JPL//eHpP1jFSDbJVJC0D2GFARQMjhHSlkx7j22Rs+KjFim+1se4TM5hodLSSSkpzapxas+G8e89I1uYOWALPiPf+bdFPZh0z5iqs5Mqt3K1cELxh6+3ubGqYNUIikIfjQ7cIISAI23xnSgRQY9uTeK1WdJe4ZTHEtz0B2DxDkgpXpxb4xXafrQfoINl9kEO/NF4N8jY/KU5DwWesHRV6QO4+Rj1TBI929EQgQrXVoFqvU+6DdufyNlPdtaLExYKIr0CrMzObVrmRWboUQhn2rABzRhgTGFjo55Cpkoc+riDI8fGKEXARpURQy05kFIqSjdAcN42oPcWi1FhcWn5v4/8OtMsgu4cKKT40/B2a7GwhmepyxLktwp7YAGddo14wmOJtZChMUFK5ap1tqzXrpLVKTIIUEuLuS60bOLDFYFrQXJyNdItDkVnlzlC5nWns2sgUMtzk9IVUOJYIUwbGxNIQZ7OH1q0sZP1iNXE0/PMFZ0/jdcGSu3vxz4F/fqsW1dwNDrAqKefurDDwavxeaQ8yXi4mKiKesPxS0Q7jdvPWVX0YEro7YrqomO0vpaQJ8bu389ZijJKkKZKErIQUKtv4+/EesCqI0ZhuDOGAlaK4sGGVq1nOrElpGifBDYF2Ci0jHK8Jm3nCjirruXJjqFwZKGu50rPOiTPiI2pr/FjYKFLqEz0hmlBRJFdcyQUwgnjtQK7smCpL/Zx+v39fy0Lufpys1qmj6EG5wTXYGGqEdHbhFBVpT9FQKy4SDBYdKRcHf0y8+g0ebXBq8BUgVXHhiUAsaliLjdk4CNNYQpOYAfqq3BzCamqZSw2HKsJ0Ci2BagKpJAhuPlXXWjZyuJ0pb/Qtv+xYrg2VQa4k4sCKTJuHsNEW3SXeSbPi/AKrOAku9b31KzU2u24d0fuh3Y+TvWoUo9FzjJ6xx1ytDVEU0QJ7u5SIIEZ8pdFZuFATLjJcOupEJSWmCh4ubpxs/O6uIyF0UidxEhjAp92sQm6VxChzqeHJunKwItRDY2jJd6gCY0nCgQqcxvJUTXiiani+k/PLTs5mpiSmiJPD3GqJGaDCaQvxv1DyutUlXGwiDOG+PexdBznmG0Y6NbwqVuKsh0ZqmKql1BInFb3cstwdMMwtKRLLdW5cR4EKJiAwjZTy3Bo8M3XHiZfoItVdDHDENmgBnF2dMMKzLfc5VhG38MHbvMe7yTBTUf5V6phizMA/b2WsZlAVV35V0UK5hecRFzPbqMoI3BnHT6w+kPO0yz1epY8tucE+5MgsTFZTPnmgzSfn2hxoVKkmzg7185wrWz1+u9zh9bVttgY5RgyhOVK8ei4ZMg+gs6vRqfGueBEne19ALIXmFJ+ICJLvgB/myoRRvtpK+NaY4VjVFPOiykmAdxkBEeHxmlIZT+nlyk+2M7q5kvrEh0RfoNTBKt4niYkTLUrnWrSw3y/trk323rIKI6lLa13ceXqiwTeOTPOtE7M8c2CMVEb5szPMeG2lw3evrPCdy8vc2hmQqnhHxIHshNBPTh6R0KJo73wvLy7Wg28iluDnOBFyzOqYIlHlmZrwrXHDqZp5906QdyER4UTV8I12ws1hzm93LLkqxveHF4zqnmekeSXIhipuDmCRbbhf2pN6svUBfwyfUBZaNf7DY3P8xeNzzDdr79jbNFZN+cLBCQ41qxiB/3v+Dne6AyqJG5niCI2srblixJJZZwbCVBZbXodLIS63F1RmmLjk05TWwrGq4fOthONVecf7uxcSA0/UDZ9pJiwOLHd8z70JiRnjmCHG0+LrV4ERrXMiJX2PSuRdaHdBltE/FSXLlWbV8G+PT/PtUwc42KrxrrctcHy8zn9+fJ7toeXHi2tusxBttFKwvlqLJIapasKEEcSt7OLbbgSVxHutvgQYHHH14RtKhqBGeaYufLwhVHeluU5opcLnWilndiw3+xkmhm7eCYuhYNDdo0WaqJUeQFXDHvR4hXy18ZKlqhxq1vj8/CRH2nXeE1+KcGKiwZ8/NsfBySbbWeg1ccfmpbEJ9qveHqPadLGy2jAfiVgAUJ+Izn2oAmA9yDmQivLxhmE2usMPToJhoQqHq4aKaNFMIBBnIfgHiXluKHnfltjp+gD3sQchVPFvrkotEZ6canJ8/J1V9O+8MSN87MAYk+NN1jKJ5/SaLGa7fBSFiJvUihSp1PLvIZKyQS3aYj+L6wB5rKKku/xagpoIh6su731n6FR10Scm0X/Qu/L6qrhETqCHxfEKFFLDuSqtxHCsXWPqPa5cG0gQ6onQqhh6AVQhFhRUQZMSiL7QYyU6qbG2HUHHd5rgqoRa2r9hoG7eYfW9ByQBphPDRAK3BzHSc7/Fjgj3faTrWDWoneLm75N2FeQkMRjxClBTrFUSgZl6ldY9rJIHxHDWKgxyPMf7MQnlW2+aNUQfd383pe+Uxqrwz/wKBq7VJ9rrXSQRqBuoBS9FfWCgTquEgorxD6fga+9B9eAnDj4k3nU1TRgTJfEDbsSFVNuDjF6WM167t8spro5bSdyXsmSCB1nA5oUUh2RDZAC/vwQt4MdOcB6weDsZ1k+NP+4ixYKrusYHl7D1xRfvRFqh5PGHKEtCgoAH0TG7CvJYrcpURaj0lQzHsf3ccnWzx3p/yFzrXpY0UnZy2BjkdLLgKTOSuQzRhypgSi2EJcCjmvd/h/dU+DR2lPK+dfVki7CbLx9QYDNTtmxRUQuGV30/mGMur0a8GnLmJkc0fVBtvbsgT7XHmG9WMH3vYKD0s5y31jrc7PR4YnrsPZ9rmFteXFznH6+useaXRIQCoPC3Wpfrbs1M0JwYh6SYAB9IvZrU8vFKLJDkCPMVYSJJOVhN2E1RVoWVobI6jOEABWQuExfXvzG+EEOhcuJEhQegXQX5wOwsx6fapGs7dEkQyVC1XN7Y4YdXVjkx3uL4xO9vHleUi+s9/u7cbf7u4h1X0TFSrMkGMXmAVcQYDmTCZFpDKqnbRiHBIt6uqe+ZNoVkC5YcuGCEwyl8rGncK4R2ifq5ZXmYszX0N29c/l5yBzA+AeJqzOrX6w42OTTqu+6a+6VdjRdqtRqPHZjiEH00GyBiqGDoDHK+e3mJvz1/izud/u89z5WNLn9z7iY/W1xnkCtVY0hxr/1JxE1nScSQ+u+pcUUEwTf3+RyyUd9O5BP8xidTwko8CYpgEBW2MuXaIGc1e1DlWJBVy6VexqVeztCvVhSXdBJKzQ1K6PsJzOgmzJX2f1i8a4Anjxzky+eucW2lT78xjuY9VODmdp///dZtBpnlm8dneWKmRfMuj3uzP+S1lW2+e2mJv7+4xJ3OgHpi/FzjQoyL53W9IomEblgtLU3h9zASGwgQcVzgG/hi4wJKqsq5bs6vOxlzaYVqAg+qtrcy5edbQ97sDuOaoTEdG06tuC4YCc9DEQoYd79Fh8v90a6DPHfgAF99bIEXVq7w+qCGGIOxOSrC5Y0uf332FufWdvj0oQmOtutM1Srk6pZ4uLy5wwu3NvjN7U3W+5lb+DRkMKOAuRRk8dDlZptiG2FhGilNsPPARuHQsnetXBtYfrIx5Ima4anWAw6NKm/sZPxyO2NlqFSMn+1p/TOoT7GGVGboORMfQuEZ0cfR8jBJMsAzJ4/zp4vLbFzb4FrSRoz4GQSw3B3wgyvL/PjaClONCodaNQa5crszYGuY+T4pqMQJZYGLS5ZF45wF70yFalQJfO+0xLYiP5iuylesmqde8kOI8kY34zvrQjWBU/XSfNZ7oFyVM50hf7/a50I3cwulh2pYlGifXpXQXigxkxnmZlvxDUH6YDplT0Cenp7izz77DJuD3/B/bm1yqzqJSRLIXOPa0Fp6OWwPMxa3eqgIeQ54+5q+LZ3nmnQDEHH1AT8tNaYHrbi5R97bCqGnSMEQ+MF0QuKYQH2jYCqwnSs/3hgiwLen4WQtIbmHVGeuyqvbQ/5maYcXNzP66rpdiJo6FEqkFPRL6R7Fp6ydk6gGv6zk/VfG9my964MHD/KfPvcMyUuv87c31rgibZJaHbKcVNwipy7OdQ10qY9conSFOMeTqoxUkIplnUJyyDsqIfxwv0YQi/KP758KA+zHzeJso1hh3VqeWx+wmVn+ZKLKk82UqVTedTX8oSpLg5zXO0N+sD7gpc2Mbm59n1ewNcUCM0B0tmJdvFAv0bdQrDM7D4DFnq5cf+zoUf6qVmPmpdf4ztUN3uz2WU8amGoNO+wDliSuER0CWUpIllysUsqyhHERR8bZF7ZQiZ6CqnbSJCUDFxjA20L/m6iyMbT8ZNNyuZfz6VaFj7cSjtUTGomJGsUxqaVrlau9jBc3hry0PeTWUMnVxmgoaBAoerPjjIqQ1bLcBXHnZXEAAAkZSURBVKQD3Cgk1pI8AMx7/g6Kubk5/uLLn+XjV2/w3NkrPLe0weV+k46pIknFre5eThqrV68RiNL69L5y5LJbhQq24nqnsda35Tr17n40YJx9C+dwOdcQogio9U63Iazga3Adl+e6ObcHlhc3hbmqYSo11BK/0JzCTq4sDy2rQxcPb+TOjrp1s72GcZkO7zD7WF0sVo3D10+U87NgCa3ERgxqhHrWZzrhvt/S/r68TabdbvOJp5/i2KE5vnD5Ot89e5UfLne4Y1rk1bp7KJsVrFzuSw461fNA7JECxA8c1jLsDcizHFNJSysBCkiOW8ek2KTlioao75uT2KERLpR4520jU1aGlot9oYqQGJ+9wL0SoZs5ZnNmyKvnogMZx3Qana/gPYPrWg2ta0W6Q9wsRyNIYhizGYfbjft+z9T7+l6o6elpvjQ9zYmDs3zq3GWeu7TE81sD1pMapDXnSed+1kVQZWW6a4UB8Q3s1iqD7S5Zv0+lXvWDGXLE+ORCUNslW+8tgoaFUgvvqBSWGVLUv39ZGKBoXqxTJiJUkuAM+vOJ10Zlpg3Td4LNCQ18wdoEGxQTXn5RtzxjSjKOz85QqdxbuTbQB/KGt8MLC/z5oUM8feQSz7x+ke9fXeNMt0m3UseYFMhDrMOoo2P9IJqipxpBrWWw06W33aXaarr1L61bDEa8alctBhAoOXEaJ5sHZggAun1CYcFtSyKrBBA1TrsJTp9oMCYUf6sWPKvl3/zKBRDttPoWXsRQW1/htBmycGD2vsf7A3tXo4jwxGOnWJif46PnLvL8pZv8+OYGbw1bZNUaoTd/NEhUz/06uoCaQDbM6K5tUm+3qI+3XNjhPWgNU2AA1MaW5tA5GaYXh1mOzgsWbyls3NdlH734BWCtBzc20fvr+mjArUGmPjkDYQ0LDRINTsr9dfEmQtKUPMs41V3lS8cmGB8fv/+xflhekr2xscHPXzvLjy4v8cLKgOsyhq3WKNpAbAlrKdKCwcYqmDRl/OAsEwuzJPWKizPj7EWNXnsIY5Ri/hMQ88TFmh8yIoHOrhbZqsBw6jVOUPkakjWqMeNWFEQC00opKlDUaHRAJUkAw+TyNf5jo8tffvYTD7QE1EMDMrhBXlxc5MdnzvPctTVe3oblZAySFFHfHgIE0S7730ElV2o1WvPTjM/PUKnXCjvowXatukVywo23FuCMXMKr+chRRCMa4/Z48+Bn7pWeJ6jpoDqKfePMSop7cwCnWJsztXabb8gm//4jJzl+9OgDjetDBXKgLMs4f+ky33/tAj9a3OLNYZWdmldXNqMsaxDGtZCWtFZlbHaKsQOTVFp1JEn8jA73zoiiMEF8ZWC0wSUA8VeKBlbx3SmF46WhHCh4r95LsfiwqVAbRG0SHbTCQZAkgSTBrC1zsrfCV5vKv378BMeOPth6IfCQghxoc3OTX7/xFj88f5MX14ZcsTV6lTEn1X65wmIaVNmrcSsP1CbGaE1PUJ8YI61VEPGvI7A2QOEcq7jWlhdUKWecKKTTV7NESjkspWiOD33hoYvHeVPEPvGSoyYh+yUGk1ZgZ5u57iofs9t87cAYn33ycdrt9q6M40MNMjh1t7q6yi/OXuAf37rOrzaFRa2idf+eC+sWnggNzeKPCcsspbUqjak2zakJtzh51Rcd1M2akLBQa6zcy8i0lbgOV8DZ7yshpi7lpR2wUUy9p66xN634yTU6SKVCvtNjsrPKk4NNvj5b44unT3JgdvaBZ3CU6aEHOdBwOOTq9Rv89I2L/ODqGq8OKqwnLYxJ0XzA2+y118VWwCQJlUad5lSbxtQ41UYDSY1X1T5+DY6QuPahUgKu/L9SuOPUdjnCCyY5mpKSpo5SrW7NLs0y6tvrHBts8Gwt42vHFzh17MievNrvQwNyoJ2dHS5eu8EPzlzk+4tbXMrrdJMmGOPe5FoedO8FB7trUkN1rElzZoL6+BhpvebfKWGjJCKukhVqJCH/EqUSonfsNH25LUej/XD7+aH1UyckdRFrpbvNwe0VPp/0+NrxeU4vHGJiYmLPxuxDB3Kg1dVVfnv+Et978yo/XYNFrTNMau4dHjaPwBn/Uo8iPQFJrUq93aI5O0W9PYappmAMkueozQsnuCTBUYajBHvXTXGhWshwCc58WFysnYCYxHWo9LpMdDb4ZL7BN+cneObYAnNzc3s+Vh9akAPdWFzklcvX+Yc3b/CLDWGZGnlaBf9GG+MdLYCirVcwSULNWOYbwvjkGIPxcbqVJtQaPo+e+1DJdf0Jig192lpk0ZwTVmTKxFeVrFoPboLtDWj2NvhIf42vz9T51JFDnDh6ZFft7rvRhx7kQK+/dY4Xz1/jh1dW+W0vYSetuz7q8GIPb38NSiJKPR/wZLLDN4/PcGJ+hkvbXZ7vJdyYWiCrNVzBIM+iRyXqCg7lnHRcV1O8VfcFCDEGkgSbDan2OhzZWuHLzZwvH53nj06deN9eqRvoDwZkcPb6jYuXOXNzhcur2yxudbndzbkzdOW/8cQyXTUcn2xwcqrNU3NTPH3qGJOTk6yurvLylev8bGmLf8nrbLRnoVb3783IY2Yr5rt9ajK0NakET9247f0eh7eX+Xx1wOfnp/jY8cNMTU19IOPyBwVymdbW1rh5e4mlzW1WdnqIKu16hclmg6MH55ifn3/H465eu8bPL9/gl9sZv0kn2GlNu9YlAWuz+LLQYOGNrya5okKCDntMba7wCdvhi7MNvvj4SWZn77+4sBv0Bwtymay10f69FzuY5zlvXrrEP12+xW96cK4xRb814evXHlSffHEZMYvNhoxtb/JEtsEXxgxfOXmYE8eOOe/9A6ZHAuT7pW63y8tvXeCnt1Z5vW+4kTbZaE1immMu2ZLnmJ0tprqbHNUeT9fgSwszPH361H0X+PeC9kH+PRQybm9eX+S15Q1u5Al94+JdwTKWZxytwNPz0zx+9DDtdvt985rfK+2DfA/U7Xbp9/t+tVtHaZpSrVYfKsm9m/ZBfgTog/cK9mnPaR/kR4D2QX4EaB/kR4D2QX4EaB/kR4D2QX4EaB/kR4D2QX4EaB/kR4D2QX4EaB/kR4D2QX4EaB/kR4D2QX4EaB/kR4D+P+oEdNfgNuz6AAAAAElFTkSuQmCC;" vertex="1" parent="1">
          <mxGeometry x="800" y="208.25" width="83.5" height="83.5" as="geometry" />
        </mxCell>
        <mxCell id="qwJ5qURFDOFc9HHXz2gv-8" value="" style="aspect=fixed;html=1;points=[];align=center;image;fontSize=12;image=img/lib/azure2/analytics/Event_Hubs.svg;" vertex="1" parent="1">
          <mxGeometry x="600" y="224" width="67" height="60" as="geometry" />
        </mxCell>
        <mxCell id="qwJ5qURFDOFc9HHXz2gv-9" value="" style="aspect=fixed;html=1;points=[];align=center;image;fontSize=12;image=img/lib/azure2/preview/IoT_Edge.svg;" vertex="1" parent="1">
          <mxGeometry x="220" y="216" width="68" height="67" as="geometry" />
        </mxCell>
      </root>
    </mxGraphModel>
  </diagram>
  <diagram id="WI9T0HZ2pTsCkuznbFz-" name="Page-1">
    <mxGraphModel dx="1198" dy="848" grid="1" gridSize="10" guides="1" tooltips="1" connect="1" arrows="1" fold="1" page="1" pageScale="1" pageWidth="1169" pageHeight="827" math="0" shadow="0">
      <root>
        <mxCell id="0" />
        <mxCell id="1" parent="0" />
        <mxCell id="AcxdMaKK0mU5kZiv2lnr-49" style="edgeStyle=elbowEdgeStyle;rounded=0;orthogonalLoop=1;jettySize=auto;elbow=vertical;html=1;strokeColor=#808080;entryX=-0.032;entryY=0.493;entryDx=0;entryDy=0;entryPerimeter=0;exitX=1.016;exitY=0.498;exitDx=0;exitDy=0;exitPerimeter=0;" parent="1" source="RLjyjs_sm2IHfBNOWAbh-12" target="RLjyjs_sm2IHfBNOWAbh-14" edge="1">
          <mxGeometry relative="1" as="geometry">
            <mxPoint x="845.5" y="45.5" as="sourcePoint" />
            <mxPoint x="1105.5" y="45.5" as="targetPoint" />
          </mxGeometry>
        </mxCell>
        <mxCell id="RLjyjs_sm2IHfBNOWAbh-35" style="edgeStyle=elbowEdgeStyle;rounded=0;orthogonalLoop=1;jettySize=auto;html=1;strokeColor=#808080;entryX=-0.003;entryY=0.508;entryDx=0;entryDy=0;entryPerimeter=0;" parent="1" source="RLjyjs_sm2IHfBNOWAbh-13" target="RLjyjs_sm2IHfBNOWAbh-19" edge="1">
          <mxGeometry relative="1" as="geometry" />
        </mxCell>
        <mxCell id="RLjyjs_sm2IHfBNOWAbh-27" style="edgeStyle=elbowEdgeStyle;rounded=0;orthogonalLoop=1;jettySize=auto;html=1;strokeColor=#808080;entryX=-0.038;entryY=0.5;entryDx=0;entryDy=0;entryPerimeter=0;exitX=1.031;exitY=0.506;exitDx=0;exitDy=0;exitPerimeter=0;elbow=vertical;" parent="1" source="RLjyjs_sm2IHfBNOWAbh-14" target="RLjyjs_sm2IHfBNOWAbh-16" edge="1">
          <mxGeometry relative="1" as="geometry" />
        </mxCell>
        <mxCell id="RLjyjs_sm2IHfBNOWAbh-37" style="edgeStyle=elbowEdgeStyle;rounded=0;orthogonalLoop=1;jettySize=auto;html=1;strokeColor=#808080;entryX=0.496;entryY=0.02;entryDx=0;entryDy=0;entryPerimeter=0;exitX=0.497;exitY=1;exitDx=0;exitDy=0;exitPerimeter=0;" parent="1" source="RLjyjs_sm2IHfBNOWAbh-16" target="RLjyjs_sm2IHfBNOWAbh-19" edge="1">
          <mxGeometry relative="1" as="geometry" />
        </mxCell>
        <mxCell id="RLjyjs_sm2IHfBNOWAbh-28" style="edgeStyle=elbowEdgeStyle;rounded=0;orthogonalLoop=1;jettySize=auto;html=1;strokeColor=#808080;" parent="1" source="RLjyjs_sm2IHfBNOWAbh-17" target="RLjyjs_sm2IHfBNOWAbh-24" edge="1">
          <mxGeometry relative="1" as="geometry">
            <Array as="points">
              <mxPoint x="909.5" y="295.5" />
            </Array>
          </mxGeometry>
        </mxCell>
        <mxCell id="RLjyjs_sm2IHfBNOWAbh-36" style="edgeStyle=elbowEdgeStyle;rounded=0;orthogonalLoop=1;jettySize=auto;html=1;strokeColor=#808080;exitX=0.997;exitY=0.495;exitDx=0;exitDy=0;exitPerimeter=0;" parent="1" source="RLjyjs_sm2IHfBNOWAbh-19" target="RLjyjs_sm2IHfBNOWAbh-23" edge="1">
          <mxGeometry relative="1" as="geometry" />
        </mxCell>
        <mxCell id="RLjyjs_sm2IHfBNOWAbh-32" style="edgeStyle=elbowEdgeStyle;rounded=0;orthogonalLoop=1;jettySize=auto;html=1;strokeColor=#808080;entryX=0.996;entryY=0.508;entryDx=0;entryDy=0;entryPerimeter=0;startArrow=classic;startFill=1;elbow=vertical;" parent="1" target="RLjyjs_sm2IHfBNOWAbh-21" edge="1">
          <mxGeometry relative="1" as="geometry">
            <mxPoint x="695.5" y="503.5" as="sourcePoint" />
          </mxGeometry>
        </mxCell>
        <mxCell id="RLjyjs_sm2IHfBNOWAbh-33" style="edgeStyle=elbowEdgeStyle;rounded=0;orthogonalLoop=1;jettySize=auto;html=1;strokeColor=#808080;" parent="1" source="RLjyjs_sm2IHfBNOWAbh-20" edge="1">
          <mxGeometry relative="1" as="geometry">
            <mxPoint x="720.5" y="405.5" as="targetPoint" />
          </mxGeometry>
        </mxCell>
        <mxCell id="RLjyjs_sm2IHfBNOWAbh-31" style="edgeStyle=elbowEdgeStyle;rounded=0;orthogonalLoop=1;jettySize=auto;html=1;strokeColor=#808080;" parent="1" source="RLjyjs_sm2IHfBNOWAbh-22" edge="1">
          <mxGeometry relative="1" as="geometry">
            <mxPoint x="720.5" y="525.5" as="targetPoint" />
          </mxGeometry>
        </mxCell>
        <mxCell id="RLjyjs_sm2IHfBNOWAbh-29" style="edgeStyle=elbowEdgeStyle;rounded=0;orthogonalLoop=1;jettySize=auto;html=1;entryX=0.494;entryY=1.052;entryDx=0;entryDy=0;entryPerimeter=0;strokeColor=#808080;" parent="1" source="RLjyjs_sm2IHfBNOWAbh-23" target="RLjyjs_sm2IHfBNOWAbh-24" edge="1">
          <mxGeometry relative="1" as="geometry" />
        </mxCell>
        <mxCell id="RLjyjs_sm2IHfBNOWAbh-30" style="edgeStyle=elbowEdgeStyle;rounded=0;orthogonalLoop=1;jettySize=auto;html=1;strokeColor=#808080;exitX=0.62;exitY=1.036;exitDx=0;exitDy=0;exitPerimeter=0;startArrow=classic;startFill=1;" parent="1" source="RLjyjs_sm2IHfBNOWAbh-23" edge="1">
          <mxGeometry relative="1" as="geometry">
            <mxPoint x="745.5" y="616.5" as="targetPoint" />
            <Array as="points">
              <mxPoint x="913.5" y="616.5" />
            </Array>
          </mxGeometry>
        </mxCell>
        <mxCell id="RLjyjs_sm2IHfBNOWAbh-12" value="Diagrnostic &lt;br&gt;Events" style="aspect=fixed;html=1;perimeter=none;align=center;shadow=0;dashed=0;image;fontSize=12;image=img/lib/mscae/DirectorySync.svg;labelBackgroundColor=#ffffff;fillColor=#4D9900;" parent="1" vertex="1">
          <mxGeometry x="235.5" y="198.99999999999994" width="50" height="50" as="geometry" />
        </mxCell>
        <mxCell id="RLjyjs_sm2IHfBNOWAbh-13" value="Vehicle&#xa;Catalogue" style="shape=image;verticalLabelPosition=bottom;labelBackgroundColor=#ffffff;verticalAlign=top;aspect=fixed;imageAspect=0;image=data:image/svg+xml,PHN2ZyB4bWxuczpkYz0iaHR0cDovL3B1cmwub3JnL2RjL2VsZW1lbnRzLzEuMS8iIHhtbG5zOmNjPSJodHRwOi8vY3JlYXRpdmVjb21tb25zLm9yZy9ucyMiIHhtbG5zOnJkZj0iaHR0cDovL3d3dy53My5vcmcvMTk5OS8wMi8yMi1yZGYtc3ludGF4LW5zIyIgeG1sbnM6c3ZnPSJodHRwOi8vd3d3LnczLm9yZy8yMDAwL3N2ZyIgeG1sbnM9Imh0dHA6Ly93d3cudzMub3JnLzIwMDAvc3ZnIiB4bWxuczp4bGluaz0iaHR0cDovL3d3dy53My5vcmcvMTk5OS94bGluayIgeG1sbnM6c29kaXBvZGk9Imh0dHA6Ly9zb2RpcG9kaS5zb3VyY2Vmb3JnZS5uZXQvRFREL3NvZGlwb2RpLTAuZHRkIiB4bWxuczppbmtzY2FwZT0iaHR0cDovL3d3dy5pbmtzY2FwZS5vcmcvbmFtZXNwYWNlcy9pbmtzY2FwZSIgdmVyc2lvbj0iMS4xIiBpZD0iTGF5ZXJfMSIgeD0iMHB4IiB5PSIwcHgiIHZpZXdCb3g9IjAgMCA0Ny45NTM3NyA0Ny45NDAzNjkiIHhtbDpzcGFjZT0icHJlc2VydmUiIHNvZGlwb2RpOmRvY25hbWU9ImRldm9wc19zaGlwcGluZy5zdmciIHdpZHRoPSI0Ny45NTM3NyIgaGVpZ2h0PSI0Ny45NDAzNjkiIGlua3NjYXBlOnZlcnNpb249IjAuOTIuMyAoMjQwNTU0NiwgMjAxOC0wMy0xMSkiPjxtZXRhZGF0YSBpZD0ibWV0YWRhdGE0NjI2NyI+PHJkZjpSREY+PGNjOldvcmsgcmRmOmFib3V0PSIiPjxkYzpmb3JtYXQ+aW1hZ2Uvc3ZnK3htbDwvZGM6Zm9ybWF0PjxkYzp0eXBlIHJkZjpyZXNvdXJjZT0iaHR0cDovL3B1cmwub3JnL2RjL2RjbWl0eXBlL1N0aWxsSW1hZ2UiLz48ZGM6dGl0bGUvPjwvY2M6V29yaz48L3JkZjpSREY+PC9tZXRhZGF0YT48ZGVmcyBpZD0iZGVmczQ2MjY1Ii8+PHNvZGlwb2RpOm5hbWVkdmlldyBwYWdlY29sb3I9IiNmZmZmZmYiIGJvcmRlcmNvbG9yPSIjNjY2NjY2IiBib3JkZXJvcGFjaXR5PSIxIiBvYmplY3R0b2xlcmFuY2U9IjEwIiBncmlkdG9sZXJhbmNlPSIxMCIgZ3VpZGV0b2xlcmFuY2U9IjEwIiBpbmtzY2FwZTpwYWdlb3BhY2l0eT0iMCIgaW5rc2NhcGU6cGFnZXNoYWRvdz0iMiIgaW5rc2NhcGU6d2luZG93LXdpZHRoPSIxOTIwIiBpbmtzY2FwZTp3aW5kb3ctaGVpZ2h0PSIxMDE3IiBpZD0ibmFtZWR2aWV3NDYyNjMiIHNob3dncmlkPSJmYWxzZSIgZml0LW1hcmdpbi10b3A9IjAiIGZpdC1tYXJnaW4tbGVmdD0iMCIgZml0LW1hcmdpbi1yaWdodD0iMCIgZml0LW1hcmdpbi1ib3R0b209IjAiIGlua3NjYXBlOnpvb209IjEuMDMwMzAzIiBpbmtzY2FwZTpjeD0iLTYuNzg1MDAzNyIgaW5rc2NhcGU6Y3k9Ii0zMTAuNDQ5NjMiIGlua3NjYXBlOndpbmRvdy14PSItOCIgaW5rc2NhcGU6d2luZG93LXk9Ii04IiBpbmtzY2FwZTp3aW5kb3ctbWF4aW1pemVkPSIxIiBpbmtzY2FwZTpjdXJyZW50LWxheWVyPSJMYXllcl8xIi8+JiN4YTsmI3hhOzxnIGlkPSJnNDYyNjAiIHRyYW5zZm9ybT0idHJhbnNsYXRlKC0zMDQuMTYsLTYyLjM2MDAwMSkiPiYjeGE7CTxkZWZzIGlkPSJkZWZzNDYyMTkiPiYjeGE7CQk8cmVjdCBpZD0iU1ZHSURfM18iIHg9IjMwNC4xNiIgeT0iNjIuMzYwMDAxIiB3aWR0aD0iNDguMTYiIGhlaWdodD0iNDguMTYiLz4mI3hhOwk8L2RlZnM+JiN4YTsJPGNsaXBQYXRoIGlkPSJTVkdJRF80XyI+JiN4YTsJCTx1c2UgeGxpbms6aHJlZj0iI1NWR0lEXzNfIiBzdHlsZT0ib3ZlcmZsb3c6dmlzaWJsZSIgaWQ9InVzZTQ2MjIxIiB4PSIwIiB5PSIwIiB3aWR0aD0iMTAwJSIgaGVpZ2h0PSIxMDAlIi8+JiN4YTsJPC9jbGlwUGF0aD4mI3hhOwk8ZyBjbGlwLXBhdGg9InVybCgjU1ZHSURfNF8pIiBpZD0iZzQ2MjU4Ij4mI3hhOwkJPGRlZnMgaWQ9ImRlZnM0NjIyNSI+JiN4YTsJCQk8cmVjdCBpZD0iU1ZHSURfNV8iIHg9IjMwNC4xNiIgeT0iNjIuMzYwMDAxIiB3aWR0aD0iNDguMTYiIGhlaWdodD0iNDguMTYiLz4mI3hhOwkJPC9kZWZzPiYjeGE7CQk8Y2xpcFBhdGggaWQ9IlNWR0lEXzZfIj4mI3hhOwkJCTx1c2UgeGxpbms6aHJlZj0iI1NWR0lEXzVfIiBzdHlsZT0ib3ZlcmZsb3c6dmlzaWJsZSIgaWQ9InVzZTQ2MjI3IiB4PSIwIiB5PSIwIiB3aWR0aD0iMTAwJSIgaGVpZ2h0PSIxMDAlIi8+JiN4YTsJCTwvY2xpcFBhdGg+JiN4YTsJCTxwYXRoIHN0eWxlPSJmaWxsOiNmZmZmZmYiIGQ9Im0gMzI4LjEzLDEwOS45NCBjIC05LjUzLDAgLTE4LjE2LC01Ljc1IC0yMS44MSwtMTQuNTYgLTMuNjYsLTguODEgLTEuNjIsLTE5IDUuMTUsLTI1LjcxIDYuNzEsLTYuNzcgMTYuOSwtOC44MSAyNS43MSwtNS4xNSA4LjgxLDMuNjYgMTQuNTYsMTIuMjkgMTQuNTYsMjEuODEgLTAuMDYsMTMgLTEwLjYxLDIzLjU1IC0yMy42MSwyMy42MSB6IiBjbGlwLXBhdGg9InVybCgjU1ZHSURfNl8pIiBpZD0icGF0aDQ2MjMwIiBpbmtzY2FwZTpjb25uZWN0b3ItY3VydmF0dXJlPSIwIi8+JiN4YTsJCTxwYXRoIHN0eWxlPSJmaWxsOiNlNWU1ZTUiIGQ9Im0gMzI4LjEzLDEwOS41OCBjIC02Ljg5LDAgLTEzLjM2LC0zLjA2IC0xNy44LC04LjMzIC0wLjY2LC0wLjg0IC0xLjMyLC0xLjY4IC0xLjg2LC0yLjU4IC0wLjQ4LC0wLjcyIC0wLjg0LC0xLjQ0IC0xLjIsLTIuMTYgbCAtMC4xMiwtMC4xMiBjIC0wLjEyLC0wLjI0IC0wLjE4LC0wLjQyIC0wLjMsLTAuNiBsIC0wLjEyLC0wLjQ4IGMgLTAuNDgsLTAuOTYgLTAuNzgsLTEuOTggLTEuMDgsLTMgLTAuNDIsLTEuNSAtMC42NiwtMyAtMC43MiwtNC40OSBoIDQ2LjM4IGMgLTAuNzcsMTIuMjMgLTEwLjk2LDIxLjc2IC0yMy4xOCwyMS43NiB6IiBjbGlwLXBhdGg9InVybCgjU1ZHSURfNl8pIiBpZD0icGF0aDQ2MjMyIiBpbmtzY2FwZTpjb25uZWN0b3ItY3VydmF0dXJlPSIwIi8+JiN4YTsJCTxwb2x5Z29uIHN0eWxlPSJmaWxsOiNmZmZmZmYiIHBvaW50cz0iMzMxLjksNzguODQgMzMxLjksOTMuMSAzNDMuODksOTMuMSAzNDMuODksODQuMjkgMzM5LjIyLDc4Ljg0ICIgY2xpcC1wYXRoPSJ1cmwoI1NWR0lEXzZfKSIgaWQ9InBvbHlnb240NjIzNCIvPiYjeGE7CQk8cG9seWdvbiBzdHlsZT0iZmlsbDojMmJjN2Y0IiBwb2ludHM9IjMzNC45LDg1LjYxIDMzNC45LDc5LjYyIDMzOS40LDc5LjYyIDM0My4xMSw4My43NSAzNDMuODksODUuNjEgIiBjbGlwLXBhdGg9InVybCgjU1ZHSURfNl8pIiBpZD0icG9seWdvbjQ2MjM2Ii8+JiN4YTsJCTxwYXRoIHN0eWxlPSJmaWxsOiM1NTZhOGEiIGQ9Im0gMzQ0LjY0LDkzLjEgLTAuNzUsMC43NSBIIDMzMS45IEwgMzMxLjE1LDkzLjEgViA3OC44NCBsIDAuNzUsLTAuNzUgaCA3LjMxIGwgMC41NywwLjI2IDQuNjcsNS40NSAwLjE4LDAuNDkgdiA4LjgxIHogbSAtMS41LC04LjgxIDAuMTgsMC40OSAtNC42NywtNS40NSAwLjU3LDAuMjYgaCAtNy4zMSBsIDAuNzUsLTAuNzUgViA5My4xIGwgLTAuNzUsLTAuNzUgaCAxMS45OCBsIC0wLjc1LDAuNzUgeiIgY2xpcC1wYXRoPSJ1cmwoI1NWR0lEXzZfKSIgaWQ9InBhdGg0NjIzOCIgaW5rc2NhcGU6Y29ubmVjdG9yLWN1cnZhdHVyZT0iMCIvPiYjeGE7CQk8cmVjdCB4PSIzMTMuMTQ5OTkiIHk9Ijc1LjEyMDAwMyIgc3R5bGU9ImZpbGw6I2ZmZmZmZiIgd2lkdGg9IjIxLjc1IiBoZWlnaHQ9IjE3Ljk4IiBjbGlwLXBhdGg9InVybCgjU1ZHSURfNl8pIiBpZD0icmVjdDQ2MjQwIi8+JiN4YTsJCTxwYXRoIHN0eWxlPSJmaWxsOiM1NTZhOGEiIGQ9Im0gMzEzLjksOTMuMSAtMC43NSwtMC43NSBoIDIxLjc1IGwgLTAuNzUsMC43NSBWIDc1LjEyIGwgMC43NSwwLjc1IGggLTIxLjc1IGwgMC43NSwtMC43NSB6IG0gLTEuNSwtMTcuOTggMC43NSwtMC43NSBoIDIxLjc1IGwgMC43NSwwLjc1IFYgOTMuMSBsIC0wLjc1LDAuNzUgSCAzMTMuMTUgTCAzMTIuNCw5My4xIFoiIGNsaXAtcGF0aD0idXJsKCNTVkdJRF82XykiIGlkPSJwYXRoNDYyNDIiIGlua3NjYXBlOmNvbm5lY3Rvci1jdXJ2YXR1cmU9IjAiLz4mI3hhOwkJPGNpcmNsZSBzdHlsZT0iZmlsbDojZmZmZmZmIiBjeD0iMzE5LjkyMDAxIiBjeT0iOTQuNjYwMDA0IiByPSI0LjQ4OTk5OTgiIGNsaXAtcGF0aD0idXJsKCNTVkdJRF82XykiIGlkPSJjaXJjbGU0NjI0NCIvPiYjeGE7CQk8cGF0aCBzdHlsZT0iZmlsbDojNTU2YThhIiBkPSJtIDMyMy42NCw5NC4yNCAwLjAxLDAuMDggLTAuMDcsLTAuNDQgMC4wMywwLjEyIC0wLjI3LC0wLjg0IDAuMDUsMC4xMyAtMC40MSwtMC43NiAwLjA4LDAuMTIgLTAuNTUsLTAuNjcgMC4xLDAuMSAtMC42NywtMC41NSAwLjEyLDAuMDggLTAuNzYsLTAuNDEgMC4xMywwLjA1IC0wLjg0LC0wLjI3IDAuMTIsMC4wMyAtMC40NCwtMC4wNyAwLjA4LDAuMDEgLTAuNDYsLTAuMDIgaCAwLjA3IGwgLTAuNDYsMC4wMiAwLjA3LC0wLjAxIC0wLjQ1LDAuMDYgMC4xMiwtMC4wMyAtMC44NSwwLjI3IDAuMTMsLTAuMDUgLTAuNzYsMC40MSAwLjEyLC0wLjA4IC0wLjY3LDAuNTUgMC4xLC0wLjEgLTAuNTUsMC42NyAwLjA4LC0wLjEyIC0wLjQsMC43NiAwLjA1LC0wLjEzIC0wLjI2LDAuODQgMC4wMiwtMC4xMSAtMC4wNywwLjQ0IDAuMDEsLTAuMDggLTAuMDIsMC40NiB2IC0wLjA3IGwgMC4wMiwwLjQ2IC0wLjAxLC0wLjA3IDAuMDcsMC40NSAtMC4wMiwtMC4xMSAwLjI2LDAuODUgLTAuMDUsLTAuMTMgMC40LDAuNzYgLTAuMDgsLTAuMTMgMC41NSwwLjY2IC0wLjEsLTAuMSAwLjY3LDAuNTUgLTAuMTIsLTAuMDggMC43NiwwLjQxIC0wLjE0LC0wLjA2IDAuODUsMC4yNSAtMC4xLC0wLjAyIDAuNDUsMC4wNyAtMC4wNywtMC4wMSAwLjQ2LDAuMDIgaCAtMC4wNyBsIDAuNDYsLTAuMDIgLTAuMDgsMC4wMSAwLjQ0LC0wLjA3IC0wLjEsMC4wMiAwLjg0LC0wLjI1IC0wLjE0LDAuMDYgMC43NiwtMC40MSAtMC4xMiwwLjA4IDAuNjcsLTAuNTUgLTAuMSwwLjEgMC41NSwtMC42NiAtMC4wOSwwLjEzIDAuNDEsLTAuNzYgLTAuMDUsMC4xMyAwLjI3LC0wLjg1IC0wLjAzLDAuMTEgMC4wNywtMC40NSAtMC4wMSwwLjA3IDAuMDIsLTAuNDYgdiAwLjA3IHogbSAxLjUyLDAuMzggdiAwLjA3IGwgLTAuMDIsMC40NiAtMC4wMSwwLjA3IC0wLjA3LDAuNDUgLTAuMDMsMC4xMSAtMC4yNywwLjg1IC0wLjA1LDAuMTMgLTAuNDEsMC43NiAtMC4wOSwwLjEzIC0wLjU1LDAuNjYgLTAuMSwwLjEgLTAuNjcsMC41NSAtMC4xMiwwLjA4IC0wLjc2LDAuNDEgLTAuMTQsMC4wNiAtMC44NCwwLjI1IC0wLjEsMC4wMiAtMC40NCwwLjA3IC0wLjA4LDAuMDEgLTAuNDYsMC4wMiBoIC0wLjA3IGwgLTAuNDYsLTAuMDIgLTAuMDcsLTAuMDEgLTAuNDUsLTAuMDcgLTAuMSwtMC4wMiAtMC44NSwtMC4yNSAtMC4xNCwtMC4wNiAtMC43NiwtMC40MSAtMC4xMiwtMC4wOCAtMC42NywtMC41NSAtMC4xLC0wLjEgLTAuNTUsLTAuNjYgLTAuMDgsLTAuMTMgLTAuNCwtMC43NiAtMC4wNSwtMC4xMyAtMC4yNiwtMC44NSAtMC4wMiwtMC4xMSAtMC4wNywtMC40NSAtMC4wMSwtMC4wNyAtMC4wMiwtMC40NiB2IC0wLjA3IGwgMC4wMiwtMC40NiAwLjAxLC0wLjA4IDAuMDcsLTAuNDQgMC4wMiwtMC4xMSAwLjI2LC0wLjg0IDAuMDUsLTAuMTMgMC40LC0wLjc2IDAuMDgsLTAuMTIgMC41NSwtMC42NyAwLjEsLTAuMSAwLjY3LC0wLjU1IDAuMTIsLTAuMDggMC43NiwtMC40MSAwLjEzLC0wLjA1IDAuODUsLTAuMjcgMC4xMiwtMC4wMyAwLjQ1LC0wLjA3IDAuMDcsLTAuMDEgMC40NiwtMC4wMiBoIDAuMDcgbCAwLjQ2LDAuMDIgMC4wOCwwLjAxIDAuNDQsMC4wNyAwLjEyLDAuMDMgMC44NCwwLjI3IDAuMTMsMC4wNSAwLjc2LDAuNDEgMC4xMiwwLjA4IDAuNjcsMC41NSAwLjEsMC4xIDAuNTUsMC42NyAwLjA4LDAuMTIgMC40MSwwLjc2IDAuMDUsMC4xMyAwLjI3LDAuODQgMC4wMywwLjEyIDAuMDcsMC40NCAwLjAxLDAuMDggeiIgY2xpcC1wYXRoPSJ1cmwoI1NWR0lEXzZfKSIgaWQ9InBhdGg0NjI0NiIgaW5rc2NhcGU6Y29ubmVjdG9yLWN1cnZhdHVyZT0iMCIvPiYjeGE7CQk8cGF0aCBzdHlsZT0iZmlsbDojMmJjN2Y0IiBkPSJtIDMyMS40Miw5NC42NiBjIDAsMC44NCAtMC43MiwxLjUgLTEuNSwxLjUgLTAuODQsMCAtMS41LC0wLjY2IC0xLjUsLTEuNSAwLC0wLjg0IDAuNjYsLTEuNSAxLjUsLTEuNSAwLjc4LDAgMS41LDAuNjYgMS41LDEuNSB6IiBjbGlwLXBhdGg9InVybCgjU1ZHSURfNl8pIiBpZD0icGF0aDQ2MjQ4IiBpbmtzY2FwZTpjb25uZWN0b3ItY3VydmF0dXJlPSIwIi8+JiN4YTsJCTxjaXJjbGUgc3R5bGU9ImZpbGw6I2ZmZmZmZiIgY3g9IjMzNC44OTk5OSIgY3k9Ijk0LjY2MDAwNCIgcj0iNC40ODk5OTk4IiBjbGlwLXBhdGg9InVybCgjU1ZHSURfNl8pIiBpZD0iY2lyY2xlNDYyNTAiLz4mI3hhOwkJPHBhdGggc3R5bGU9ImZpbGw6IzU1NmE4YSIgZD0ibSAzMzguNjIsOTQuMjQgMC4wMSwwLjA4IC0wLjA3LC0wLjQ0IDAuMDMsMC4xMiAtMC4yNywtMC44NCAwLjA1LDAuMTMgLTAuNDEsLTAuNzYgMC4wOCwwLjEyIC0wLjU1LC0wLjY3IDAuMSwwLjEgLTAuNjcsLTAuNTUgMC4xMiwwLjA4IC0wLjc2LC0wLjQxIDAuMTMsMC4wNSAtMC44NCwtMC4yNyAwLjEyLDAuMDMgLTAuNDQsLTAuMDcgMC4wOCwwLjAxIC0wLjQ2LC0wLjAyIGggMC4wNyBsIC0wLjQ2LDAuMDIgMC4wNywtMC4wMSAtMC40NSwwLjA2IDAuMTIsLTAuMDMgLTAuODUsMC4yNyAwLjEzLC0wLjA1IC0wLjc2LDAuNDEgMC4xMiwtMC4wOCAtMC42NywwLjU1IDAuMSwtMC4xIC0wLjU1LDAuNjcgMC4wOCwtMC4xMiAtMC40LDAuNzYgMC4wNSwtMC4xMyAtMC4yNiwwLjg0IDAuMDIsLTAuMTEgLTAuMDcsMC40NCAwLjAxLC0wLjA4IC0wLjAyLDAuNDYgdiAtMC4wNyBsIDAuMDIsMC40NiAtMC4wMSwtMC4wNyAwLjA3LDAuNDUgLTAuMDIsLTAuMTEgMC4yNiwwLjg1IC0wLjA1LC0wLjEzIDAuNCwwLjc2IC0wLjA4LC0wLjEzIDAuNTUsMC42NiAtMC4xLC0wLjEgMC42NywwLjU1IC0wLjEyLC0wLjA4IDAuNzYsMC40MSAtMC4xNCwtMC4wNiAwLjg1LDAuMjUgLTAuMSwtMC4wMiAwLjQ1LDAuMDcgLTAuMDcsLTAuMDEgMC40NiwwLjAyIGggLTAuMDcgbCAwLjQ2LC0wLjAyIC0wLjA4LDAuMDEgMC40NCwtMC4wNyAtMC4xLDAuMDIgMC44NCwtMC4yNSAtMC4xNCwwLjA2IDAuNzYsLTAuNDEgLTAuMTIsMC4wOCAwLjY3LC0wLjU1IC0wLjEsMC4xIDAuNTUsLTAuNjYgLTAuMDksMC4xMyAwLjQxLC0wLjc2IC0wLjA1LDAuMTMgMC4yNywtMC44NSAtMC4wMywwLjExIDAuMDcsLTAuNDUgLTAuMDEsMC4wNyAwLjAyLC0wLjQ2IHYgMC4wNyB6IG0gMS41MiwwLjM4IHYgMC4wNyBsIC0wLjAyLDAuNDYgLTAuMDEsMC4wNyAtMC4wNywwLjQ1IC0wLjAzLDAuMTEgLTAuMjcsMC44NSAtMC4wNSwwLjEzIC0wLjQxLDAuNzYgLTAuMDksMC4xMyAtMC41NSwwLjY2IC0wLjEsMC4xIC0wLjY3LDAuNTUgLTAuMTIsMC4wOCAtMC43NiwwLjQxIC0wLjE0LDAuMDYgLTAuODQsMC4yNSAtMC4xLDAuMDIgLTAuNDQsMC4wNyAtMC4wOCwwLjAxIC0wLjQ2LDAuMDIgaCAtMC4wNyBsIC0wLjQ2LC0wLjAyIC0wLjA3LC0wLjAxIC0wLjQ1LC0wLjA3IC0wLjEsLTAuMDIgLTAuODUsLTAuMjUgLTAuMTQsLTAuMDYgLTAuNzYsLTAuNDEgLTAuMTIsLTAuMDggLTAuNjcsLTAuNTUgLTAuMSwtMC4xIC0wLjU1LC0wLjY2IC0wLjA4LC0wLjEzIC0wLjQsLTAuNzYgLTAuMDUsLTAuMTMgLTAuMjYsLTAuODUgLTAuMDIsLTAuMTEgLTAuMDcsLTAuNDUgLTAuMDEsLTAuMDcgLTAuMDIsLTAuNDYgdiAtMC4wNyBsIDAuMDIsLTAuNDYgMC4wMSwtMC4wOCAwLjA3LC0wLjQ0IDAuMDIsLTAuMTEgMC4yNiwtMC44NCAwLjA1LC0wLjEzIDAuNCwtMC43NiAwLjA4LC0wLjEyIDAuNTUsLTAuNjcgMC4xLC0wLjEgMC42NywtMC41NSAwLjEyLC0wLjA4IDAuNzYsLTAuNDEgMC4xMywtMC4wNSAwLjg1LC0wLjI3IDAuMTIsLTAuMDMgMC40NSwtMC4wNyAwLjA3LC0wLjAxIDAuNDYsLTAuMDIgaCAwLjA3IGwgMC40NiwwLjAyIDAuMDgsMC4wMSAwLjQ0LDAuMDcgMC4xMiwwLjAzIDAuODQsMC4yNyAwLjEzLDAuMDUgMC43NiwwLjQxIDAuMTIsMC4wOCAwLjY3LDAuNTUgMC4xLDAuMSAwLjU1LDAuNjcgMC4wOCwwLjEyIDAuNDEsMC43NiAwLjA1LDAuMTMgMC4yNywwLjg0IDAuMDMsMC4xMiAwLjA3LDAuNDQgMC4wMSwwLjA4IHoiIGNsaXAtcGF0aD0idXJsKCNTVkdJRF82XykiIGlkPSJwYXRoNDYyNTIiIGlua3NjYXBlOmNvbm5lY3Rvci1jdXJ2YXR1cmU9IjAiLz4mI3hhOwkJPHBhdGggc3R5bGU9ImZpbGw6IzJiYzdmNCIgZD0ibSAzMzYuNCw5NC42NiBjIDAsMC44NCAtMC43MiwxLjUgLTEuNSwxLjUgLTAuODQsMCAtMS41LC0wLjY2IC0xLjUsLTEuNSAwLC0wLjg0IDAuNjYsLTEuNSAxLjUsLTEuNSAwLjc4LDAgMS41LDAuNjYgMS41LDEuNSB6IiBjbGlwLXBhdGg9InVybCgjU1ZHSURfNl8pIiBpZD0icGF0aDQ2MjU0IiBpbmtzY2FwZTpjb25uZWN0b3ItY3VydmF0dXJlPSIwIi8+JiN4YTsJCTxwYXRoIHN0eWxlPSJmaWxsOiM1NTZhOGEiIGQ9Im0gMzI4LjEzLDYyLjM2IGMgLTE1Ljc2LDAgLTI3LjIxLDE0LjkyIC0yMy4xOSwzMC4xNCAwLjMsMS4wMiAwLjY2LDIuMSAxLjA4LDMuMTIgMC4xOCwwLjQyIDAuMzYsMC44NCAwLjU0LDEuMiAwLjM2LDAuNzggMC43OCwxLjU2IDEuMjYsMi4yOCAwLjYsMC45IDEuMjYsMS44IDEuOTIsMi42NCAxMS4yNywxMy40MiAzMi43MiwxMC42MSA0MC4wOSwtNS4yNyA3LjQyLC0xNS44OSAtNC4xNCwtMzQuMTEgLTIxLjcsLTM0LjExIHogbSAwLDEuNSBjIDE2LjQyLDAgMjcuMzMsMTcuMDggMjAuMzcsMzIgLTYuOTUsMTQuODYgLTI3LjAzLDE3LjUgLTM3LjU3LDQuOTEgLTAuNzIsLTAuNzggLTEuMzIsLTEuNjIgLTEuODYsLTIuNTIgLTAuNDIsLTAuNjYgLTAuODQsLTEuMzggLTEuMTQsLTIuMSAtMC4yNCwtMC40MiAtMC40MiwtMC43OCAtMC41NCwtMS4xNCAtMC40MiwtMC45NiAtMC43MiwtMS45MiAtMC45NiwtMi45NCAtMy44MywtMTQuMjUgNi45NiwtMjguMjEgMjEuNywtMjguMjEgeiIgY2xpcC1wYXRoPSJ1cmwoI1NWR0lEXzZfKSIgaWQ9InBhdGg0NjI1NiIgaW5rc2NhcGU6Y29ubmVjdG9yLWN1cnZhdHVyZT0iMCIvPiYjeGE7CTwvZz4mI3hhOzwvZz4mI3hhOzwvc3ZnPg==;fillColor=#4D9900;" parent="1" vertex="1">
          <mxGeometry x="236.50000000000006" y="355.5" width="48" height="48" as="geometry" />
        </mxCell>
        <mxCell id="RLjyjs_sm2IHfBNOWAbh-14" value="Event Hub" style="aspect=fixed;html=1;perimeter=none;align=center;shadow=0;dashed=0;image;fontSize=12;image=img/lib/mscae/Event_Hubs.svg;labelBackgroundColor=#ffffff;fillColor=#4D9900;" parent="1" vertex="1">
          <mxGeometry x="465.5" y="198.99999999999994" width="48.5" height="50" as="geometry" />
        </mxCell>
        <mxCell id="RLjyjs_sm2IHfBNOWAbh-16" value="Stream Analytics" style="aspect=fixed;html=1;perimeter=none;align=center;shadow=0;dashed=0;image;fontSize=12;image=img/lib/mscae/Stream_Analytics.svg;labelBackgroundColor=#ffffff;fillColor=#4D9900;" parent="1" vertex="1">
          <mxGeometry x="688.0000000000001" y="198.5" width="65" height="51" as="geometry" />
        </mxCell>
        <mxCell id="RLjyjs_sm2IHfBNOWAbh-17" value="Machine&lt;br&gt;Learning" style="aspect=fixed;html=1;perimeter=none;align=left;shadow=0;dashed=0;image;fontSize=12;image=img/lib/mscae/Machine_Learning.svg;labelBackgroundColor=#ffffff;fillColor=#4D9900;labelPosition=right;verticalLabelPosition=bottom;verticalAlign=top;" parent="1" vertex="1">
          <mxGeometry x="745.5" y="183.5" width="29" height="30" as="geometry" />
        </mxCell>
        <mxCell id="RLjyjs_sm2IHfBNOWAbh-19" value="Geography&lt;br&gt;Data" style="aspect=fixed;html=1;perimeter=none;align=center;shadow=0;dashed=0;image;fontSize=12;image=img/lib/mscae/BlobBlock.svg;labelBackgroundColor=#ffffff;fillColor=#4D9900;spacingTop=7;" parent="1" vertex="1">
          <mxGeometry x="695.5000000000001" y="358.2499999999999" width="50" height="42.5" as="geometry" />
        </mxCell>
        <mxCell id="RLjyjs_sm2IHfBNOWAbh-20" value="HDInsight" style="aspect=fixed;html=1;perimeter=none;align=center;shadow=0;dashed=0;image;fontSize=12;image=img/lib/mscae/HDInsight.svg;labelBackgroundColor=#ffffff;fillColor=#4D9900;spacingTop=4;" parent="1" vertex="1">
          <mxGeometry x="695.5000000000001" y="484.2500000000001" width="50" height="38.5" as="geometry" />
        </mxCell>
        <mxCell id="RLjyjs_sm2IHfBNOWAbh-21" value="Machine&lt;br&gt;Learning" style="aspect=fixed;html=1;perimeter=none;align=center;shadow=0;dashed=0;image;fontSize=12;image=img/lib/mscae/Machine_Learning.svg;labelBackgroundColor=#ffffff;fillColor=#4D9900;" parent="1" vertex="1">
          <mxGeometry x="555.5" y="478.5000000000001" width="49" height="50" as="geometry" />
        </mxCell>
        <mxCell id="RLjyjs_sm2IHfBNOWAbh-22" value="Data Factory" style="aspect=fixed;html=1;perimeter=none;align=center;shadow=0;dashed=0;image;fontSize=12;image=img/lib/mscae/Data_Factory.svg;labelBackgroundColor=#ffffff;fillColor=#4D9900;" parent="1" vertex="1">
          <mxGeometry x="695.5000000000001" y="591.5" width="50" height="50" as="geometry" />
        </mxCell>
        <mxCell id="RLjyjs_sm2IHfBNOWAbh-23" value="SQL Data&lt;br&gt;Warehouse" style="aspect=fixed;html=1;perimeter=none;align=center;shadow=0;dashed=0;image;fontSize=12;image=img/lib/mscae/SQL_Database_generic.svg;labelBackgroundColor=#ffffff;fillColor=#4D9900;spacingTop=6;" parent="1" vertex="1">
          <mxGeometry x="890.2499999999998" y="478.5" width="37.5" height="50" as="geometry" />
        </mxCell>
        <mxCell id="RLjyjs_sm2IHfBNOWAbh-24" value="Power BI" style="shadow=0;dashed=0;html=1;strokeColor=none;labelPosition=center;verticalLabelPosition=bottom;verticalAlign=top;align=center;shape=mxgraph.mscae.cloud.power_bi_embedded;fillColor=#000000;pointerEvents=1;labelBackgroundColor=#ffffff;spacingTop=7;" parent="1" vertex="1">
          <mxGeometry x="885.4999999999999" y="354.5" width="47" height="50" as="geometry" />
        </mxCell>
      </root>
    </mxGraphModel>
  </diagram>
</mxfile>
